<svg width="971" height="360" viewBox="0 0 971 360" fill="none" xmlns="http://www.w3.org/2000/svg">
<rect width="206" height="72" rx="36" fill="#FFA51F"/>
<path d="M31.6948 33.36C31.6948 34.1067 31.5148 34.8067 31.1548 35.46C30.8081 36.1133 30.2548 36.64 29.4948 37.04C28.7481 37.44 27.8014 37.64 26.6548 37.64H24.3148V43H21.5148V29.04H26.6548C27.7348 29.04 28.6548 29.2267 29.4148 29.6C30.1748 29.9733 30.7414 30.4867 31.1148 31.14C31.5014 31.7933 31.6948 32.5333 31.6948 33.36ZM26.5348 35.38C27.3081 35.38 27.8814 35.2067 28.2548 34.86C28.6281 34.5 28.8148 34 28.8148 33.36C28.8148 32 28.0548 31.32 26.5348 31.32H24.3148V35.38H26.5348ZM36.4827 33.64C36.8427 33.0533 37.3094 32.5933 37.8827 32.26C38.4694 31.9267 39.1361 31.76 39.8827 31.76V34.7H39.1427C38.2627 34.7 37.5961 34.9067 37.1427 35.32C36.7027 35.7333 36.4827 36.4533 36.4827 37.48V43H33.6827V31.92H36.4827V33.64ZM46.6887 43.18C45.622 43.18 44.662 42.9467 43.8087 42.48C42.9553 42 42.282 41.3267 41.7887 40.46C41.3087 39.5933 41.0687 38.5933 41.0687 37.46C41.0687 36.3267 41.3153 35.3267 41.8087 34.46C42.3153 33.5933 43.002 32.9267 43.8687 32.46C44.7353 31.98 45.702 31.74 46.7687 31.74C47.8353 31.74 48.802 31.98 49.6687 32.46C50.5353 32.9267 51.2153 33.5933 51.7087 34.46C52.2153 35.3267 52.4687 36.3267 52.4687 37.46C52.4687 38.5933 52.2087 39.5933 51.6887 40.46C51.182 41.3267 50.4887 42 49.6087 42.48C48.742 42.9467 47.7687 43.18 46.6887 43.18ZM46.6887 40.74C47.1953 40.74 47.6687 40.62 48.1087 40.38C48.562 40.1267 48.922 39.7533 49.1887 39.26C49.4553 38.7667 49.5887 38.1667 49.5887 37.46C49.5887 36.4067 49.3087 35.6 48.7487 35.04C48.202 34.4667 47.5287 34.18 46.7287 34.18C45.9287 34.18 45.2553 34.4667 44.7087 35.04C44.1753 35.6 43.9087 36.4067 43.9087 37.46C43.9087 38.5133 44.1687 39.3267 44.6887 39.9C45.222 40.46 45.8887 40.74 46.6887 40.74ZM57.3226 33.54C57.6826 33.0067 58.1759 32.5733 58.8026 32.24C59.4426 31.9067 60.1692 31.74 60.9826 31.74C61.9292 31.74 62.7826 31.9733 63.5426 32.44C64.3159 32.9067 64.9226 33.5733 65.3626 34.44C65.8159 35.2933 66.0426 36.2867 66.0426 37.42C66.0426 38.5533 65.8159 39.56 65.3626 40.44C64.9226 41.3067 64.3159 41.98 63.5426 42.46C62.7826 42.94 61.9292 43.18 60.9826 43.18C60.1559 43.18 59.4292 43.02 58.8026 42.7C58.1892 42.3667 57.6959 41.94 57.3226 41.42V43H54.5226V28.2H57.3226V33.54ZM63.1826 37.42C63.1826 36.7533 63.0426 36.18 62.7626 35.7C62.4959 35.2067 62.1359 34.8333 61.6826 34.58C61.2426 34.3267 60.7626 34.2 60.2426 34.2C59.7359 34.2 59.2559 34.3333 58.8026 34.6C58.3626 34.8533 58.0026 35.2267 57.7226 35.72C57.4559 36.2133 57.3226 36.7933 57.3226 37.46C57.3226 38.1267 57.4559 38.7067 57.7226 39.2C58.0026 39.6933 58.3626 40.0733 58.8026 40.34C59.2559 40.5933 59.7359 40.72 60.2426 40.72C60.7626 40.72 61.2426 40.5867 61.6826 40.32C62.1359 40.0533 62.4959 39.6733 62.7626 39.18C63.0426 38.6867 63.1826 38.1 63.1826 37.42ZM70.8773 28.2V43H68.0773V28.2H70.8773ZM83.9437 37.22C83.9437 37.62 83.917 37.98 83.8637 38.3H75.7637C75.8303 39.1 76.1103 39.7267 76.6037 40.18C77.097 40.6333 77.7037 40.86 78.4237 40.86C79.4637 40.86 80.2037 40.4133 80.6437 39.52H83.6637C83.3437 40.5867 82.7303 41.4667 81.8237 42.16C80.917 42.84 79.8037 43.18 78.4837 43.18C77.417 43.18 76.457 42.9467 75.6037 42.48C74.7637 42 74.1037 41.3267 73.6237 40.46C73.157 39.5933 72.9237 38.5933 72.9237 37.46C72.9237 36.3133 73.157 35.3067 73.6237 34.44C74.0903 33.5733 74.7437 32.9067 75.5837 32.44C76.4237 31.9733 77.3903 31.74 78.4837 31.74C79.537 31.74 80.477 31.9667 81.3037 32.42C82.1437 32.8733 82.7903 33.52 83.2437 34.36C83.7103 35.1867 83.9437 36.14 83.9437 37.22ZM81.0437 36.42C81.0303 35.7 80.7703 35.1267 80.2637 34.7C79.757 34.26 79.137 34.04 78.4037 34.04C77.7103 34.04 77.1237 34.2533 76.6437 34.68C76.177 35.0933 75.8903 35.6733 75.7837 36.42H81.0437ZM99.7474 31.76C101.107 31.76 102.201 32.18 103.027 33.02C103.867 33.8467 104.287 35.0067 104.287 36.5V43H101.487V36.88C101.487 36.0133 101.267 35.3533 100.827 34.9C100.387 34.4333 99.7874 34.2 99.0274 34.2C98.2674 34.2 97.6608 34.4333 97.2074 34.9C96.7674 35.3533 96.5474 36.0133 96.5474 36.88V43H93.7474V36.88C93.7474 36.0133 93.5274 35.3533 93.0874 34.9C92.6474 34.4333 92.0474 34.2 91.2874 34.2C90.5141 34.2 89.9008 34.4333 89.4474 34.9C89.0074 35.3533 88.7874 36.0133 88.7874 36.88V43H85.9874V31.92H88.7874V33.26C89.1474 32.7933 89.6074 32.4267 90.1674 32.16C90.7408 31.8933 91.3674 31.76 92.0474 31.76C92.9141 31.76 93.6874 31.9467 94.3674 32.32C95.0474 32.68 95.5741 33.2 95.9474 33.88C96.3074 33.24 96.8274 32.7267 97.5074 32.34C98.2008 31.9533 98.9474 31.76 99.7474 31.76ZM115.95 43.18C115.043 43.18 114.23 43.02 113.51 42.7C112.79 42.3667 112.217 41.92 111.79 41.36C111.377 40.8 111.15 40.18 111.11 39.5H113.93C113.983 39.9267 114.19 40.28 114.55 40.56C114.923 40.84 115.383 40.98 115.93 40.98C116.463 40.98 116.877 40.8733 117.17 40.66C117.477 40.4467 117.63 40.1733 117.63 39.84C117.63 39.48 117.443 39.2133 117.07 39.04C116.71 38.8533 116.13 38.6533 115.33 38.44C114.503 38.24 113.823 38.0333 113.29 37.82C112.77 37.6067 112.317 37.28 111.93 36.84C111.557 36.4 111.37 35.8067 111.37 35.06C111.37 34.4467 111.543 33.8867 111.89 33.38C112.25 32.8733 112.757 32.4733 113.41 32.18C114.077 31.8867 114.857 31.74 115.75 31.74C117.07 31.74 118.123 32.0733 118.91 32.74C119.697 33.3933 120.13 34.28 120.21 35.4H117.53C117.49 34.96 117.303 34.6133 116.97 34.36C116.65 34.0933 116.217 33.96 115.67 33.96C115.163 33.96 114.77 34.0533 114.49 34.24C114.223 34.4267 114.09 34.6867 114.09 35.02C114.09 35.3933 114.277 35.68 114.65 35.88C115.023 36.0667 115.603 36.26 116.39 36.46C117.19 36.66 117.85 36.8667 118.37 37.08C118.89 37.2933 119.337 37.6267 119.71 38.08C120.097 38.52 120.297 39.1067 120.31 39.84C120.31 40.48 120.13 41.0533 119.77 41.56C119.423 42.0667 118.917 42.4667 118.25 42.76C117.597 43.04 116.83 43.18 115.95 43.18ZM127.529 43.18C126.462 43.18 125.502 42.9467 124.649 42.48C123.795 42 123.122 41.3267 122.629 40.46C122.149 39.5933 121.909 38.5933 121.909 37.46C121.909 36.3267 122.155 35.3267 122.649 34.46C123.155 33.5933 123.842 32.9267 124.709 32.46C125.575 31.98 126.542 31.74 127.609 31.74C128.675 31.74 129.642 31.98 130.509 32.46C131.375 32.9267 132.055 33.5933 132.549 34.46C133.055 35.3267 133.309 36.3267 133.309 37.46C133.309 38.5933 133.049 39.5933 132.529 40.46C132.022 41.3267 131.329 42 130.449 42.48C129.582 42.9467 128.609 43.18 127.529 43.18ZM127.529 40.74C128.035 40.74 128.509 40.62 128.949 40.38C129.402 40.1267 129.762 39.7533 130.029 39.26C130.295 38.7667 130.429 38.1667 130.429 37.46C130.429 36.4067 130.149 35.6 129.589 35.04C129.042 34.4667 128.369 34.18 127.569 34.18C126.769 34.18 126.095 34.4667 125.549 35.04C125.015 35.6 124.749 36.4067 124.749 37.46C124.749 38.5133 125.009 39.3267 125.529 39.9C126.062 40.46 126.729 40.74 127.529 40.74ZM138.162 28.2V43H135.362V28.2H138.162ZM145.549 40.42L148.349 31.92H151.329L147.229 43H143.829L139.749 31.92H142.749L145.549 40.42ZM154.321 30.6C153.828 30.6 153.415 30.4467 153.081 30.14C152.761 29.82 152.601 29.4267 152.601 28.96C152.601 28.4933 152.761 28.1067 153.081 27.8C153.415 27.48 153.828 27.32 154.321 27.32C154.815 27.32 155.221 27.48 155.541 27.8C155.875 28.1067 156.041 28.4933 156.041 28.96C156.041 29.4267 155.875 29.82 155.541 30.14C155.221 30.4467 154.815 30.6 154.321 30.6ZM155.701 31.92V43H152.901V31.92H155.701ZM164.608 31.76C165.928 31.76 166.995 32.18 167.808 33.02C168.621 33.8467 169.028 35.0067 169.028 36.5V43H166.228V36.88C166.228 36 166.008 35.3267 165.568 34.86C165.128 34.38 164.528 34.14 163.768 34.14C162.995 34.14 162.381 34.38 161.928 34.86C161.488 35.3267 161.268 36 161.268 36.88V43H158.468V31.92H161.268V33.3C161.641 32.82 162.115 32.4467 162.688 32.18C163.275 31.9 163.915 31.76 164.608 31.76ZM176.031 31.74C176.857 31.74 177.584 31.9067 178.211 32.24C178.837 32.56 179.331 32.98 179.691 33.5V31.92H182.511V43.08C182.511 44.1067 182.304 45.02 181.891 45.82C181.477 46.6333 180.857 47.2733 180.031 47.74C179.204 48.22 178.204 48.46 177.031 48.46C175.457 48.46 174.164 48.0933 173.151 47.36C172.151 46.6267 171.584 45.6267 171.451 44.36H174.231C174.377 44.8667 174.691 45.2667 175.171 45.56C175.664 45.8667 176.257 46.02 176.951 46.02C177.764 46.02 178.424 45.7733 178.931 45.28C179.437 44.8 179.691 44.0667 179.691 43.08V41.36C179.331 41.88 178.831 42.3133 178.191 42.66C177.564 43.0067 176.844 43.18 176.031 43.18C175.097 43.18 174.244 42.94 173.471 42.46C172.697 41.98 172.084 41.3067 171.631 40.44C171.191 39.56 170.971 38.5533 170.971 37.42C170.971 36.3 171.191 35.3067 171.631 34.44C172.084 33.5733 172.691 32.9067 173.451 32.44C174.224 31.9733 175.084 31.74 176.031 31.74ZM179.691 37.46C179.691 36.78 179.557 36.2 179.291 35.72C179.024 35.2267 178.664 34.8533 178.211 34.6C177.757 34.3333 177.271 34.2 176.751 34.2C176.231 34.2 175.751 34.3267 175.311 34.58C174.871 34.8333 174.511 35.2067 174.231 35.7C173.964 36.18 173.831 36.7533 173.831 37.42C173.831 38.0867 173.964 38.6733 174.231 39.18C174.511 39.6733 174.871 40.0533 175.311 40.32C175.764 40.5867 176.244 40.72 176.751 40.72C177.271 40.72 177.757 40.5933 178.211 40.34C178.664 40.0733 179.024 39.7 179.291 39.22C179.557 38.7267 179.691 38.14 179.691 37.46Z" fill="black"/>
<rect x="206" y="216" width="222" height="72" rx="36" fill="#FFA51F"/>
<path d="M254.621 245.04V259H251.821V249.92L248.081 259H245.961L242.201 249.92V259H239.401V245.04H242.581L247.021 255.42L251.461 245.04H254.621ZM258.81 246.6C258.316 246.6 257.903 246.447 257.57 246.14C257.25 245.82 257.09 245.427 257.09 244.96C257.09 244.493 257.25 244.107 257.57 243.8C257.903 243.48 258.316 243.32 258.81 243.32C259.303 243.32 259.71 243.48 260.03 243.8C260.363 244.107 260.53 244.493 260.53 244.96C260.53 245.427 260.363 245.82 260.03 246.14C259.71 246.447 259.303 246.6 258.81 246.6ZM260.19 247.92V259H257.39V247.92H260.19ZM269.096 247.76C270.416 247.76 271.483 248.18 272.296 249.02C273.11 249.847 273.516 251.007 273.516 252.5V259H270.716V252.88C270.716 252 270.496 251.327 270.056 250.86C269.616 250.38 269.016 250.14 268.256 250.14C267.483 250.14 266.87 250.38 266.416 250.86C265.976 251.327 265.756 252 265.756 252.88V259H262.956V247.92H265.756V249.3C266.13 248.82 266.603 248.447 267.176 248.18C267.763 247.9 268.403 247.76 269.096 247.76ZM275.459 253.42C275.459 252.3 275.679 251.307 276.119 250.44C276.572 249.573 277.185 248.907 277.959 248.44C278.732 247.973 279.592 247.74 280.539 247.74C281.259 247.74 281.945 247.9 282.599 248.22C283.252 248.527 283.772 248.94 284.159 249.46V244.2H286.999V259H284.159V257.36C283.812 257.907 283.325 258.347 282.699 258.68C282.072 259.013 281.345 259.18 280.519 259.18C279.585 259.18 278.732 258.94 277.959 258.46C277.185 257.98 276.572 257.307 276.119 256.44C275.679 255.56 275.459 254.553 275.459 253.42ZM284.179 253.46C284.179 252.78 284.045 252.2 283.779 251.72C283.512 251.227 283.152 250.853 282.699 250.6C282.245 250.333 281.759 250.2 281.239 250.2C280.719 250.2 280.239 250.327 279.799 250.58C279.359 250.833 278.999 251.207 278.719 251.7C278.452 252.18 278.319 252.753 278.319 253.42C278.319 254.087 278.452 254.673 278.719 255.18C278.999 255.673 279.359 256.053 279.799 256.32C280.252 256.587 280.732 256.72 281.239 256.72C281.759 256.72 282.245 256.593 282.699 256.34C283.152 256.073 283.512 255.7 283.779 255.22C284.045 254.727 284.179 254.14 284.179 253.46ZM298.254 250.68V253.04H289.774V250.68H298.254ZM315.154 247.76C316.514 247.76 317.607 248.18 318.434 249.02C319.274 249.847 319.694 251.007 319.694 252.5V259H316.894V252.88C316.894 252.013 316.674 251.353 316.234 250.9C315.794 250.433 315.194 250.2 314.434 250.2C313.674 250.2 313.067 250.433 312.614 250.9C312.174 251.353 311.954 252.013 311.954 252.88V259H309.154V252.88C309.154 252.013 308.934 251.353 308.494 250.9C308.054 250.433 307.454 250.2 306.694 250.2C305.92 250.2 305.307 250.433 304.854 250.9C304.414 251.353 304.194 252.013 304.194 252.88V259H301.394V247.92H304.194V249.26C304.554 248.793 305.014 248.427 305.574 248.16C306.147 247.893 306.774 247.76 307.454 247.76C308.32 247.76 309.094 247.947 309.774 248.32C310.454 248.68 310.98 249.2 311.354 249.88C311.714 249.24 312.234 248.727 312.914 248.34C313.607 247.953 314.354 247.76 315.154 247.76ZM321.631 253.42C321.631 252.3 321.851 251.307 322.291 250.44C322.744 249.573 323.351 248.907 324.111 248.44C324.884 247.973 325.744 247.74 326.691 247.74C327.517 247.74 328.237 247.907 328.851 248.24C329.477 248.573 329.977 248.993 330.351 249.5V247.92H333.171V259H330.351V257.38C329.991 257.9 329.491 258.333 328.851 258.68C328.224 259.013 327.497 259.18 326.671 259.18C325.737 259.18 324.884 258.94 324.111 258.46C323.351 257.98 322.744 257.307 322.291 256.44C321.851 255.56 321.631 254.553 321.631 253.42ZM330.351 253.46C330.351 252.78 330.217 252.2 329.951 251.72C329.684 251.227 329.324 250.853 328.871 250.6C328.417 250.333 327.931 250.2 327.411 250.2C326.891 250.2 326.411 250.327 325.971 250.58C325.531 250.833 325.171 251.207 324.891 251.7C324.624 252.18 324.491 252.753 324.491 253.42C324.491 254.087 324.624 254.673 324.891 255.18C325.171 255.673 325.531 256.053 325.971 256.32C326.424 256.587 326.904 256.72 327.411 256.72C327.931 256.72 328.417 256.593 328.871 256.34C329.324 256.073 329.684 255.7 329.951 255.22C330.217 254.727 330.351 254.14 330.351 253.46ZM338.705 249.52C339.065 249.013 339.559 248.593 340.185 248.26C340.825 247.913 341.552 247.74 342.365 247.74C343.312 247.74 344.165 247.973 344.925 248.44C345.699 248.907 346.305 249.573 346.745 250.44C347.199 251.293 347.425 252.287 347.425 253.42C347.425 254.553 347.199 255.56 346.745 256.44C346.305 257.307 345.699 257.98 344.925 258.46C344.165 258.94 343.312 259.18 342.365 259.18C341.552 259.18 340.832 259.013 340.205 258.68C339.592 258.347 339.092 257.927 338.705 257.42V264.28H335.905V247.92H338.705V249.52ZM344.565 253.42C344.565 252.753 344.425 252.18 344.145 251.7C343.879 251.207 343.519 250.833 343.065 250.58C342.625 250.327 342.145 250.2 341.625 250.2C341.119 250.2 340.639 250.333 340.185 250.6C339.745 250.853 339.385 251.227 339.105 251.72C338.839 252.213 338.705 252.793 338.705 253.46C338.705 254.127 338.839 254.707 339.105 255.2C339.385 255.693 339.745 256.073 340.185 256.34C340.639 256.593 341.119 256.72 341.625 256.72C342.145 256.72 342.625 256.587 343.065 256.32C343.519 256.053 343.879 255.673 344.145 255.18C344.425 254.687 344.565 254.1 344.565 253.42ZM352.26 249.52C352.62 249.013 353.113 248.593 353.74 248.26C354.38 247.913 355.107 247.74 355.92 247.74C356.867 247.74 357.72 247.973 358.48 248.44C359.253 248.907 359.86 249.573 360.3 250.44C360.753 251.293 360.98 252.287 360.98 253.42C360.98 254.553 360.753 255.56 360.3 256.44C359.86 257.307 359.253 257.98 358.48 258.46C357.72 258.94 356.867 259.18 355.92 259.18C355.107 259.18 354.387 259.013 353.76 258.68C353.147 258.347 352.647 257.927 352.26 257.42V264.28H349.46V247.92H352.26V249.52ZM358.12 253.42C358.12 252.753 357.98 252.18 357.7 251.7C357.433 251.207 357.073 250.833 356.62 250.58C356.18 250.327 355.7 250.2 355.18 250.2C354.673 250.2 354.193 250.333 353.74 250.6C353.3 250.853 352.94 251.227 352.66 251.72C352.393 252.213 352.26 252.793 352.26 253.46C352.26 254.127 352.393 254.707 352.66 255.2C352.94 255.693 353.3 256.073 353.74 256.34C354.193 256.593 354.673 256.72 355.18 256.72C355.7 256.72 356.18 256.587 356.62 256.32C357.073 256.053 357.433 255.673 357.7 255.18C357.98 254.687 358.12 254.1 358.12 253.42ZM364.435 246.6C363.941 246.6 363.528 246.447 363.195 246.14C362.875 245.82 362.715 245.427 362.715 244.96C362.715 244.493 362.875 244.107 363.195 243.8C363.528 243.48 363.941 243.32 364.435 243.32C364.928 243.32 365.335 243.48 365.655 243.8C365.988 244.107 366.155 244.493 366.155 244.96C366.155 245.427 365.988 245.82 365.655 246.14C365.335 246.447 364.928 246.6 364.435 246.6ZM365.815 247.92V259H363.015V247.92H365.815ZM374.721 247.76C376.041 247.76 377.108 248.18 377.921 249.02C378.735 249.847 379.141 251.007 379.141 252.5V259H376.341V252.88C376.341 252 376.121 251.327 375.681 250.86C375.241 250.38 374.641 250.14 373.881 250.14C373.108 250.14 372.495 250.38 372.041 250.86C371.601 251.327 371.381 252 371.381 252.88V259H368.581V247.92H371.381V249.3C371.755 248.82 372.228 248.447 372.801 248.18C373.388 247.9 374.028 247.76 374.721 247.76ZM386.144 247.74C386.97 247.74 387.697 247.907 388.324 248.24C388.95 248.56 389.444 248.98 389.804 249.5V247.92H392.624V259.08C392.624 260.107 392.417 261.02 392.004 261.82C391.59 262.633 390.97 263.273 390.144 263.74C389.317 264.22 388.317 264.46 387.144 264.46C385.57 264.46 384.277 264.093 383.264 263.36C382.264 262.627 381.697 261.627 381.564 260.36H384.344C384.49 260.867 384.804 261.267 385.284 261.56C385.777 261.867 386.37 262.02 387.064 262.02C387.877 262.02 388.537 261.773 389.044 261.28C389.55 260.8 389.804 260.067 389.804 259.08V257.36C389.444 257.88 388.944 258.313 388.304 258.66C387.677 259.007 386.957 259.18 386.144 259.18C385.21 259.18 384.357 258.94 383.584 258.46C382.81 257.98 382.197 257.307 381.744 256.44C381.304 255.56 381.084 254.553 381.084 253.42C381.084 252.3 381.304 251.307 381.744 250.44C382.197 249.573 382.804 248.907 383.564 248.44C384.337 247.973 385.197 247.74 386.144 247.74ZM389.804 253.46C389.804 252.78 389.67 252.2 389.404 251.72C389.137 251.227 388.777 250.853 388.324 250.6C387.87 250.333 387.384 250.2 386.864 250.2C386.344 250.2 385.864 250.327 385.424 250.58C384.984 250.833 384.624 251.207 384.344 251.7C384.077 252.18 383.944 252.753 383.944 253.42C383.944 254.087 384.077 254.673 384.344 255.18C384.624 255.673 384.984 256.053 385.424 256.32C385.877 256.587 386.357 256.72 386.864 256.72C387.384 256.72 387.87 256.593 388.324 256.34C388.777 256.073 389.137 255.7 389.404 255.22C389.67 254.727 389.804 254.14 389.804 253.46Z" fill="black"/>
<rect x="208" y="74" width="206" height="72" rx="36" fill="#FFA51F"/>
<path d="M277.544 103.04L273.644 117H270.344L267.724 107.06L264.984 117L261.704 117.02L257.944 103.04H260.944L263.404 113.88L266.244 103.04H269.364L272.044 113.82L274.524 103.04H277.544ZM284.292 117.18C283.226 117.18 282.266 116.947 281.412 116.48C280.559 116 279.886 115.327 279.392 114.46C278.912 113.593 278.672 112.593 278.672 111.46C278.672 110.327 278.919 109.327 279.412 108.46C279.919 107.593 280.606 106.927 281.472 106.46C282.339 105.98 283.306 105.74 284.372 105.74C285.439 105.74 286.406 105.98 287.272 106.46C288.139 106.927 288.819 107.593 289.312 108.46C289.819 109.327 290.072 110.327 290.072 111.46C290.072 112.593 289.812 113.593 289.292 114.46C288.786 115.327 288.092 116 287.212 116.48C286.346 116.947 285.372 117.18 284.292 117.18ZM284.292 114.74C284.799 114.74 285.272 114.62 285.712 114.38C286.166 114.127 286.526 113.753 286.792 113.26C287.059 112.767 287.192 112.167 287.192 111.46C287.192 110.407 286.912 109.6 286.352 109.04C285.806 108.467 285.132 108.18 284.332 108.18C283.532 108.18 282.859 108.467 282.312 109.04C281.779 109.6 281.512 110.407 281.512 111.46C281.512 112.513 281.772 113.327 282.292 113.9C282.826 114.46 283.492 114.74 284.292 114.74ZM294.926 107.64C295.286 107.053 295.753 106.593 296.326 106.26C296.913 105.927 297.579 105.76 298.326 105.76V108.7H297.586C296.706 108.7 296.039 108.907 295.586 109.32C295.146 109.733 294.926 110.453 294.926 111.48V117H292.126V105.92H294.926V107.64ZM306.772 117L303.012 112.28V117H300.212V102.2H303.012V110.62L306.732 105.92H310.372L305.492 111.48L310.412 117H306.772ZM319.457 105.3V108.8H324.157V111.02H319.457V114.72H324.757V117H316.657V103.02H324.757V105.3H319.457ZM330.562 108.22V113.58C330.562 113.953 330.649 114.227 330.822 114.4C331.009 114.56 331.315 114.64 331.742 114.64H333.042V117H331.282C328.922 117 327.742 115.853 327.742 113.56V108.22H326.422V105.92H327.742V103.18H330.562V105.92H333.042V108.22H330.562ZM341.296 105.76C342.136 105.76 342.882 105.947 343.536 106.32C344.189 106.68 344.696 107.22 345.056 107.94C345.429 108.647 345.616 109.5 345.616 110.5V117H342.816V110.88C342.816 110 342.596 109.327 342.156 108.86C341.716 108.38 341.116 108.14 340.356 108.14C339.582 108.14 338.969 108.38 338.516 108.86C338.076 109.327 337.856 110 337.856 110.88V117H335.056V102.2H337.856V107.3C338.216 106.82 338.696 106.447 339.296 106.18C339.896 105.9 340.562 105.76 341.296 105.76ZM349.698 104.6C349.205 104.6 348.792 104.447 348.458 104.14C348.138 103.82 347.978 103.427 347.978 102.96C347.978 102.493 348.138 102.107 348.458 101.8C348.792 101.48 349.205 101.32 349.698 101.32C350.192 101.32 350.598 101.48 350.918 101.8C351.252 102.107 351.418 102.493 351.418 102.96C351.418 103.427 351.252 103.82 350.918 104.14C350.598 104.447 350.192 104.6 349.698 104.6ZM351.078 105.92V117H348.278V105.92H351.078ZM353.125 111.46C353.125 110.313 353.358 109.313 353.825 108.46C354.292 107.593 354.938 106.927 355.765 106.46C356.592 105.98 357.538 105.74 358.605 105.74C359.978 105.74 361.112 106.087 362.005 106.78C362.912 107.46 363.518 108.42 363.825 109.66H360.805C360.645 109.18 360.372 108.807 359.985 108.54C359.612 108.26 359.145 108.12 358.585 108.12C357.785 108.12 357.152 108.413 356.685 109C356.218 109.573 355.985 110.393 355.985 111.46C355.985 112.513 356.218 113.333 356.685 113.92C357.152 114.493 357.785 114.78 358.585 114.78C359.718 114.78 360.458 114.273 360.805 113.26H363.825C363.518 114.46 362.912 115.413 362.005 116.12C361.098 116.827 359.965 117.18 358.605 117.18C357.538 117.18 356.592 116.947 355.765 116.48C354.938 116 354.292 115.333 353.825 114.48C353.358 113.613 353.125 112.607 353.125 111.46Z" fill="black"/>
<rect y="146" width="173" height="72" rx="36" fill="#FFA51F"/>
<path d="M43.4835 175.04V177.3H39.7635V189H36.9635V177.3H33.2435V175.04H43.4835ZM55.8265 183.22C55.8265 183.62 55.7998 183.98 55.7465 184.3H47.6465C47.7132 185.1 47.9932 185.727 48.4865 186.18C48.9798 186.633 49.5865 186.86 50.3065 186.86C51.3465 186.86 52.0865 186.413 52.5265 185.52H55.5465C55.2265 186.587 54.6132 187.467 53.7065 188.16C52.7998 188.84 51.6865 189.18 50.3665 189.18C49.2998 189.18 48.3398 188.947 47.4865 188.48C46.6465 188 45.9865 187.327 45.5065 186.46C45.0398 185.593 44.8065 184.593 44.8065 183.46C44.8065 182.313 45.0398 181.307 45.5065 180.44C45.9732 179.573 46.6265 178.907 47.4665 178.44C48.3065 177.973 49.2732 177.74 50.3665 177.74C51.4198 177.74 52.3598 177.967 53.1865 178.42C54.0265 178.873 54.6732 179.52 55.1265 180.36C55.5932 181.187 55.8265 182.14 55.8265 183.22ZM52.9265 182.42C52.9132 181.7 52.6532 181.127 52.1465 180.7C51.6398 180.26 51.0198 180.04 50.2865 180.04C49.5932 180.04 49.0065 180.253 48.5265 180.68C48.0598 181.093 47.7732 181.673 47.6665 182.42H52.9265ZM57.1502 183.42C57.1502 182.3 57.3702 181.307 57.8102 180.44C58.2636 179.573 58.8702 178.907 59.6302 178.44C60.4036 177.973 61.2636 177.74 62.2102 177.74C63.0369 177.74 63.7569 177.907 64.3702 178.24C64.9969 178.573 65.4969 178.993 65.8702 179.5V177.92H68.6902V189H65.8702V187.38C65.5102 187.9 65.0102 188.333 64.3702 188.68C63.7436 189.013 63.0169 189.18 62.1902 189.18C61.2569 189.18 60.4036 188.94 59.6302 188.46C58.8702 187.98 58.2636 187.307 57.8102 186.44C57.3702 185.56 57.1502 184.553 57.1502 183.42ZM65.8702 183.46C65.8702 182.78 65.7369 182.2 65.4702 181.72C65.2036 181.227 64.8436 180.853 64.3902 180.6C63.9369 180.333 63.4502 180.2 62.9302 180.2C62.4102 180.2 61.9302 180.327 61.4902 180.58C61.0502 180.833 60.6902 181.207 60.4102 181.7C60.1436 182.18 60.0102 182.753 60.0102 183.42C60.0102 184.087 60.1436 184.673 60.4102 185.18C60.6902 185.673 61.0502 186.053 61.4902 186.32C61.9436 186.587 62.4236 186.72 62.9302 186.72C63.4502 186.72 63.9369 186.593 64.3902 186.34C64.8436 186.073 65.2036 185.7 65.4702 185.22C65.7369 184.727 65.8702 184.14 65.8702 183.46ZM85.1849 177.76C86.5449 177.76 87.6383 178.18 88.4649 179.02C89.3049 179.847 89.7249 181.007 89.7249 182.5V189H86.9249V182.88C86.9249 182.013 86.7049 181.353 86.2649 180.9C85.8249 180.433 85.2249 180.2 84.4649 180.2C83.7049 180.2 83.0983 180.433 82.6449 180.9C82.2049 181.353 81.9849 182.013 81.9849 182.88V189H79.1849V182.88C79.1849 182.013 78.9649 181.353 78.5249 180.9C78.0849 180.433 77.4849 180.2 76.7249 180.2C75.9516 180.2 75.3383 180.433 74.8849 180.9C74.4449 181.353 74.2249 182.013 74.2249 182.88V189H71.4249V177.92H74.2249V179.26C74.5849 178.793 75.0449 178.427 75.6049 178.16C76.1783 177.893 76.8049 177.76 77.4849 177.76C78.3516 177.76 79.1249 177.947 79.8049 178.32C80.4849 178.68 81.0116 179.2 81.3849 179.88C81.7449 179.24 82.2649 178.727 82.9449 178.34C83.6383 177.953 84.3849 177.76 85.1849 177.76ZM107.742 177.92L104.502 189H101.482L99.462 181.26L97.442 189H94.402L91.142 177.92H93.982L95.942 186.36L98.062 177.92H101.022L103.102 186.34L105.062 177.92H107.742ZM114.177 189.18C113.11 189.18 112.15 188.947 111.297 188.48C110.444 188 109.77 187.327 109.277 186.46C108.797 185.593 108.557 184.593 108.557 183.46C108.557 182.327 108.804 181.327 109.297 180.46C109.804 179.593 110.49 178.927 111.357 178.46C112.224 177.98 113.19 177.74 114.257 177.74C115.324 177.74 116.29 177.98 117.157 178.46C118.024 178.927 118.704 179.593 119.197 180.46C119.704 181.327 119.957 182.327 119.957 183.46C119.957 184.593 119.697 185.593 119.177 186.46C118.67 187.327 117.977 188 117.097 188.48C116.23 188.947 115.257 189.18 114.177 189.18ZM114.177 186.74C114.684 186.74 115.157 186.62 115.597 186.38C116.05 186.127 116.41 185.753 116.677 185.26C116.944 184.767 117.077 184.167 117.077 183.46C117.077 182.407 116.797 181.6 116.237 181.04C115.69 180.467 115.017 180.18 114.217 180.18C113.417 180.18 112.744 180.467 112.197 181.04C111.664 181.6 111.397 182.407 111.397 183.46C111.397 184.513 111.657 185.327 112.177 185.9C112.71 186.46 113.377 186.74 114.177 186.74ZM124.811 179.64C125.171 179.053 125.638 178.593 126.211 178.26C126.798 177.927 127.464 177.76 128.211 177.76V180.7H127.471C126.591 180.7 125.924 180.907 125.471 181.32C125.031 181.733 124.811 182.453 124.811 183.48V189H122.011V177.92H124.811V179.64ZM136.657 189L132.897 184.28V189H130.097V174.2H132.897V182.62L136.617 177.92H140.257L135.377 183.48L140.297 189H136.657Z" fill="black"/>
<rect y="288" width="236" height="72" rx="36" fill="#FFA51F"/>
<path d="M29.1414 331.14C28.1681 331.14 27.2881 330.973 26.5014 330.64C25.7281 330.307 25.1147 329.827 24.6614 329.2C24.2081 328.573 23.9747 327.833 23.9614 326.98H26.9614C27.0014 327.553 27.2014 328.007 27.5614 328.34C27.9347 328.673 28.4414 328.84 29.0814 328.84C29.7347 328.84 30.2481 328.687 30.6214 328.38C30.9947 328.06 31.1814 327.647 31.1814 327.14C31.1814 326.727 31.0547 326.387 30.8014 326.12C30.5481 325.853 30.2281 325.647 29.8414 325.5C29.4681 325.34 28.9481 325.167 28.2814 324.98C27.3747 324.713 26.6347 324.453 26.0614 324.2C25.5014 323.933 25.0147 323.54 24.6014 323.02C24.2014 322.487 24.0014 321.78 24.0014 320.9C24.0014 320.073 24.2081 319.353 24.6214 318.74C25.0347 318.127 25.6147 317.66 26.3614 317.34C27.1081 317.007 27.9614 316.84 28.9214 316.84C30.3614 316.84 31.5281 317.193 32.4214 317.9C33.3281 318.593 33.8281 319.567 33.9214 320.82H30.8414C30.8147 320.34 30.6081 319.947 30.2214 319.64C29.8481 319.32 29.3481 319.16 28.7214 319.16C28.1747 319.16 27.7347 319.3 27.4014 319.58C27.0814 319.86 26.9214 320.267 26.9214 320.8C26.9214 321.173 27.0414 321.487 27.2814 321.74C27.5347 321.98 27.8414 322.18 28.2014 322.34C28.5747 322.487 29.0947 322.66 29.7614 322.86C30.6681 323.127 31.4081 323.393 31.9814 323.66C32.5547 323.927 33.0481 324.327 33.4614 324.86C33.8747 325.393 34.0814 326.093 34.0814 326.96C34.0814 327.707 33.8881 328.4 33.5014 329.04C33.1147 329.68 32.5481 330.193 31.8014 330.58C31.0547 330.953 30.1681 331.14 29.1414 331.14ZM46.8089 325.22C46.8089 325.62 46.7822 325.98 46.7289 326.3H38.6289C38.6956 327.1 38.9756 327.727 39.4689 328.18C39.9622 328.633 40.5689 328.86 41.2889 328.86C42.3289 328.86 43.0689 328.413 43.5089 327.52H46.5289C46.2089 328.587 45.5956 329.467 44.6889 330.16C43.7822 330.84 42.6689 331.18 41.3489 331.18C40.2822 331.18 39.3222 330.947 38.4689 330.48C37.6289 330 36.9689 329.327 36.4889 328.46C36.0222 327.593 35.7889 326.593 35.7889 325.46C35.7889 324.313 36.0222 323.307 36.4889 322.44C36.9556 321.573 37.6089 320.907 38.4489 320.44C39.2889 319.973 40.2556 319.74 41.3489 319.74C42.4022 319.74 43.3422 319.967 44.1689 320.42C45.0089 320.873 45.6556 321.52 46.1089 322.36C46.5756 323.187 46.8089 324.14 46.8089 325.22ZM43.9089 324.42C43.8956 323.7 43.6356 323.127 43.1289 322.7C42.6222 322.26 42.0022 322.04 41.2689 322.04C40.5756 322.04 39.9889 322.253 39.5089 322.68C39.0422 323.093 38.7556 323.673 38.6489 324.42H43.9089ZM51.6527 316.2V331H48.8527V316.2H51.6527ZM59.4991 322.22H57.5591V331H54.7191V322.22H53.4591V319.92H54.7191V319.36C54.7191 318 55.1057 317 55.8791 316.36C56.6524 315.72 57.8191 315.42 59.3791 315.46V317.82C58.6991 317.807 58.2257 317.92 57.9591 318.16C57.6924 318.4 57.5591 318.833 57.5591 319.46V319.92H59.4991V322.22ZM69.8336 322.68V325.04H61.3536V322.68H69.8336ZM86.7338 319.76C88.0938 319.76 89.1871 320.18 90.0138 321.02C90.8538 321.847 91.2738 323.007 91.2738 324.5V331H88.4738V324.88C88.4738 324.013 88.2538 323.353 87.8138 322.9C87.3738 322.433 86.7738 322.2 86.0138 322.2C85.2538 322.2 84.6471 322.433 84.1938 322.9C83.7538 323.353 83.5338 324.013 83.5338 324.88V331H80.7338V324.88C80.7338 324.013 80.5138 323.353 80.0738 322.9C79.6338 322.433 79.0338 322.2 78.2738 322.2C77.5004 322.2 76.8871 322.433 76.4338 322.9C75.9938 323.353 75.7738 324.013 75.7738 324.88V331H72.9738V319.92H75.7738V321.26C76.1338 320.793 76.5938 320.427 77.1538 320.16C77.7271 319.893 78.3538 319.76 79.0338 319.76C79.9004 319.76 80.6738 319.947 81.3538 320.32C82.0338 320.68 82.5604 321.2 82.9338 321.88C83.2938 321.24 83.8138 320.727 84.4938 320.34C85.1871 319.953 85.9338 319.76 86.7338 319.76ZM93.2108 325.42C93.2108 324.3 93.4308 323.307 93.8708 322.44C94.3241 321.573 94.9308 320.907 95.6908 320.44C96.4641 319.973 97.3241 319.74 98.2708 319.74C99.0974 319.74 99.8174 319.907 100.431 320.24C101.057 320.573 101.557 320.993 101.931 321.5V319.92H104.751V331H101.931V329.38C101.571 329.9 101.071 330.333 100.431 330.68C99.8041 331.013 99.0774 331.18 98.2508 331.18C97.3174 331.18 96.4641 330.94 95.6908 330.46C94.9308 329.98 94.3241 329.307 93.8708 328.44C93.4308 327.56 93.2108 326.553 93.2108 325.42ZM101.931 325.46C101.931 324.78 101.797 324.2 101.531 323.72C101.264 323.227 100.904 322.853 100.451 322.6C99.9974 322.333 99.5108 322.2 98.9908 322.2C98.4708 322.2 97.9908 322.327 97.5508 322.58C97.1108 322.833 96.7508 323.207 96.4708 323.7C96.2041 324.18 96.0708 324.753 96.0708 325.42C96.0708 326.087 96.2041 326.673 96.4708 327.18C96.7508 327.673 97.1108 328.053 97.5508 328.32C98.0041 328.587 98.4841 328.72 98.9908 328.72C99.5108 328.72 99.9974 328.593 100.451 328.34C100.904 328.073 101.264 327.7 101.531 327.22C101.797 326.727 101.931 326.14 101.931 325.46ZM113.625 319.76C114.945 319.76 116.012 320.18 116.825 321.02C117.639 321.847 118.045 323.007 118.045 324.5V331H115.245V324.88C115.245 324 115.025 323.327 114.585 322.86C114.145 322.38 113.545 322.14 112.785 322.14C112.012 322.14 111.399 322.38 110.945 322.86C110.505 323.327 110.285 324 110.285 324.88V331H107.485V319.92H110.285V321.3C110.659 320.82 111.132 320.447 111.705 320.18C112.292 319.9 112.932 319.76 113.625 319.76ZM119.988 325.42C119.988 324.3 120.208 323.307 120.648 322.44C121.101 321.573 121.708 320.907 122.468 320.44C123.241 319.973 124.101 319.74 125.048 319.74C125.875 319.74 126.595 319.907 127.208 320.24C127.835 320.573 128.335 320.993 128.708 321.5V319.92H131.528V331H128.708V329.38C128.348 329.9 127.848 330.333 127.208 330.68C126.581 331.013 125.855 331.18 125.028 331.18C124.095 331.18 123.241 330.94 122.468 330.46C121.708 329.98 121.101 329.307 120.648 328.44C120.208 327.56 119.988 326.553 119.988 325.42ZM128.708 325.46C128.708 324.78 128.575 324.2 128.308 323.72C128.041 323.227 127.681 322.853 127.228 322.6C126.775 322.333 126.288 322.2 125.768 322.2C125.248 322.2 124.768 322.327 124.328 322.58C123.888 322.833 123.528 323.207 123.248 323.7C122.981 324.18 122.848 324.753 122.848 325.42C122.848 326.087 122.981 326.673 123.248 327.18C123.528 327.673 123.888 328.053 124.328 328.32C124.781 328.587 125.261 328.72 125.768 328.72C126.288 328.72 126.775 328.593 127.228 328.34C127.681 328.073 128.041 327.7 128.308 327.22C128.575 326.727 128.708 326.14 128.708 325.46ZM138.603 319.74C139.429 319.74 140.156 319.907 140.783 320.24C141.409 320.56 141.903 320.98 142.263 321.5V319.92H145.083V331.08C145.083 332.107 144.876 333.02 144.463 333.82C144.049 334.633 143.429 335.273 142.603 335.74C141.776 336.22 140.776 336.46 139.603 336.46C138.029 336.46 136.736 336.093 135.723 335.36C134.723 334.627 134.156 333.627 134.023 332.36H136.803C136.949 332.867 137.263 333.267 137.743 333.56C138.236 333.867 138.829 334.02 139.523 334.02C140.336 334.02 140.996 333.773 141.503 333.28C142.009 332.8 142.263 332.067 142.263 331.08V329.36C141.903 329.88 141.403 330.313 140.763 330.66C140.136 331.007 139.416 331.18 138.603 331.18C137.669 331.18 136.816 330.94 136.043 330.46C135.269 329.98 134.656 329.307 134.203 328.44C133.763 327.56 133.543 326.553 133.543 325.42C133.543 324.3 133.763 323.307 134.203 322.44C134.656 321.573 135.263 320.907 136.023 320.44C136.796 319.973 137.656 319.74 138.603 319.74ZM142.263 325.46C142.263 324.78 142.129 324.2 141.863 323.72C141.596 323.227 141.236 322.853 140.783 322.6C140.329 322.333 139.843 322.2 139.323 322.2C138.803 322.2 138.323 322.327 137.883 322.58C137.443 322.833 137.083 323.207 136.803 323.7C136.536 324.18 136.403 324.753 136.403 325.42C136.403 326.087 136.536 326.673 136.803 327.18C137.083 327.673 137.443 328.053 137.883 328.32C138.336 328.587 138.816 328.72 139.323 328.72C139.843 328.72 140.329 328.593 140.783 328.34C141.236 328.073 141.596 327.7 141.863 327.22C142.129 326.727 142.263 326.14 142.263 325.46ZM158.118 325.22C158.118 325.62 158.091 325.98 158.038 326.3H149.938C150.004 327.1 150.284 327.727 150.778 328.18C151.271 328.633 151.878 328.86 152.598 328.86C153.638 328.86 154.378 328.413 154.818 327.52H157.838C157.518 328.587 156.904 329.467 155.998 330.16C155.091 330.84 153.978 331.18 152.658 331.18C151.591 331.18 150.631 330.947 149.778 330.48C148.938 330 148.278 329.327 147.798 328.46C147.331 327.593 147.097 326.593 147.097 325.46C147.097 324.313 147.331 323.307 147.798 322.44C148.264 321.573 148.918 320.907 149.758 320.44C150.598 319.973 151.564 319.74 152.658 319.74C153.711 319.74 154.651 319.967 155.478 320.42C156.318 320.873 156.964 321.52 157.418 322.36C157.884 323.187 158.118 324.14 158.118 325.22ZM155.218 324.42C155.204 323.7 154.944 323.127 154.438 322.7C153.931 322.26 153.311 322.04 152.578 322.04C151.884 322.04 151.298 322.253 150.818 322.68C150.351 323.093 150.064 323.673 149.958 324.42H155.218ZM173.921 319.76C175.281 319.76 176.375 320.18 177.201 321.02C178.041 321.847 178.461 323.007 178.461 324.5V331H175.661V324.88C175.661 324.013 175.441 323.353 175.001 322.9C174.561 322.433 173.961 322.2 173.201 322.2C172.441 322.2 171.835 322.433 171.381 322.9C170.941 323.353 170.721 324.013 170.721 324.88V331H167.921V324.88C167.921 324.013 167.701 323.353 167.261 322.9C166.821 322.433 166.221 322.2 165.461 322.2C164.688 322.2 164.075 322.433 163.621 322.9C163.181 323.353 162.961 324.013 162.961 324.88V331H160.161V319.92H162.961V321.26C163.321 320.793 163.781 320.427 164.341 320.16C164.915 319.893 165.541 319.76 166.221 319.76C167.088 319.76 167.861 319.947 168.541 320.32C169.221 320.68 169.748 321.2 170.121 321.88C170.481 321.24 171.001 320.727 171.681 320.34C172.375 319.953 173.121 319.76 173.921 319.76ZM191.418 325.22C191.418 325.62 191.392 325.98 191.338 326.3H183.238C183.305 327.1 183.585 327.727 184.078 328.18C184.572 328.633 185.178 328.86 185.898 328.86C186.938 328.86 187.678 328.413 188.118 327.52H191.138C190.818 328.587 190.205 329.467 189.298 330.16C188.392 330.84 187.278 331.18 185.958 331.18C184.892 331.18 183.932 330.947 183.078 330.48C182.238 330 181.578 329.327 181.098 328.46C180.632 327.593 180.398 326.593 180.398 325.46C180.398 324.313 180.632 323.307 181.098 322.44C181.565 321.573 182.218 320.907 183.058 320.44C183.898 319.973 184.865 319.74 185.958 319.74C187.012 319.74 187.952 319.967 188.778 320.42C189.618 320.873 190.265 321.52 190.718 322.36C191.185 323.187 191.418 324.14 191.418 325.22ZM188.518 324.42C188.505 323.7 188.245 323.127 187.738 322.7C187.232 322.26 186.612 322.04 185.878 322.04C185.185 322.04 184.598 322.253 184.118 322.68C183.652 323.093 183.365 323.673 183.258 324.42H188.518ZM199.602 319.76C200.922 319.76 201.989 320.18 202.802 321.02C203.615 321.847 204.022 323.007 204.022 324.5V331H201.222V324.88C201.222 324 201.002 323.327 200.562 322.86C200.122 322.38 199.522 322.14 198.762 322.14C197.989 322.14 197.375 322.38 196.922 322.86C196.482 323.327 196.262 324 196.262 324.88V331H193.462V319.92H196.262V321.3C196.635 320.82 197.109 320.447 197.682 320.18C198.269 319.9 198.909 319.76 199.602 319.76ZM209.945 322.22V327.58C209.945 327.953 210.031 328.227 210.205 328.4C210.391 328.56 210.698 328.64 211.125 328.64H212.425V331H210.665C208.305 331 207.125 329.853 207.125 327.56V322.22H205.805V319.92H207.125V317.18H209.945V319.92H212.425V322.22H209.945Z" fill="black"/>
<rect x="421" width="206" height="72" rx="36" fill="#404040"/>
<path d="M480.944 29.04V43H478.144V37.06H472.164V43H469.364V29.04H472.164V34.78H478.144V29.04H480.944ZM493.2 29.04V31.3H489.48V43H486.68V31.3H482.96V29.04H493.2ZM510.463 29.04V43H507.663V33.92L503.923 43H501.803L498.043 33.92V43H495.243V29.04H498.423L502.863 39.42L507.303 29.04H510.463ZM516.032 40.78H520.632V43H513.232V29.04H516.032V40.78ZM534.677 24.06L529.277 46.62H526.537L531.937 24.06H534.677ZM540.989 36C540.989 34.6267 541.296 33.4 541.909 32.32C542.536 31.2267 543.382 30.38 544.449 29.78C545.529 29.1667 546.736 28.86 548.069 28.86C549.629 28.86 550.996 29.26 552.169 30.06C553.342 30.86 554.162 31.9667 554.629 33.38H551.409C551.089 32.7133 550.636 32.2133 550.049 31.88C549.476 31.5467 548.809 31.38 548.049 31.38C547.236 31.38 546.509 31.5733 545.869 31.96C545.242 32.3333 544.749 32.8667 544.389 33.56C544.042 34.2533 543.869 35.0667 543.869 36C543.869 36.92 544.042 37.7333 544.389 38.44C544.749 39.1333 545.242 39.6733 545.869 40.06C546.509 40.4333 547.236 40.62 548.049 40.62C548.809 40.62 549.476 40.4533 550.049 40.12C550.636 39.7733 551.089 39.2667 551.409 38.6H554.629C554.162 40.0267 553.342 41.14 552.169 41.94C551.009 42.7267 549.642 43.12 548.069 43.12C546.736 43.12 545.529 42.82 544.449 42.22C543.382 41.6067 542.536 40.76 541.909 39.68C541.296 38.6 540.989 37.3733 540.989 36ZM561.841 43.14C560.867 43.14 559.987 42.9733 559.201 42.64C558.427 42.3067 557.814 41.8267 557.361 41.2C556.907 40.5733 556.674 39.8333 556.661 38.98H559.661C559.701 39.5533 559.901 40.0067 560.261 40.34C560.634 40.6733 561.141 40.84 561.781 40.84C562.434 40.84 562.947 40.6867 563.321 40.38C563.694 40.06 563.881 39.6467 563.881 39.14C563.881 38.7267 563.754 38.3867 563.501 38.12C563.247 37.8533 562.927 37.6467 562.541 37.5C562.167 37.34 561.647 37.1667 560.981 36.98C560.074 36.7133 559.334 36.4533 558.761 36.2C558.201 35.9333 557.714 35.54 557.301 35.02C556.901 34.4867 556.701 33.78 556.701 32.9C556.701 32.0733 556.907 31.3533 557.321 30.74C557.734 30.1267 558.314 29.66 559.061 29.34C559.807 29.0067 560.661 28.84 561.621 28.84C563.061 28.84 564.227 29.1933 565.121 29.9C566.027 30.5933 566.527 31.5667 566.621 32.82H563.541C563.514 32.34 563.307 31.9467 562.921 31.64C562.547 31.32 562.047 31.16 561.421 31.16C560.874 31.16 560.434 31.3 560.101 31.58C559.781 31.86 559.621 32.2667 559.621 32.8C559.621 33.1733 559.741 33.4867 559.981 33.74C560.234 33.98 560.541 34.18 560.901 34.34C561.274 34.4867 561.794 34.66 562.461 34.86C563.367 35.1267 564.107 35.3933 564.681 35.66C565.254 35.9267 565.747 36.3267 566.161 36.86C566.574 37.3933 566.781 38.0933 566.781 38.96C566.781 39.7067 566.587 40.4 566.201 41.04C565.814 41.68 565.247 42.1933 564.501 42.58C563.754 42.9533 562.867 43.14 561.841 43.14ZM574.028 43.14C573.055 43.14 572.175 42.9733 571.388 42.64C570.615 42.3067 570.001 41.8267 569.548 41.2C569.095 40.5733 568.861 39.8333 568.848 38.98H571.848C571.888 39.5533 572.088 40.0067 572.448 40.34C572.821 40.6733 573.328 40.84 573.968 40.84C574.621 40.84 575.135 40.6867 575.508 40.38C575.881 40.06 576.068 39.6467 576.068 39.14C576.068 38.7267 575.941 38.3867 575.688 38.12C575.435 37.8533 575.115 37.6467 574.728 37.5C574.355 37.34 573.835 37.1667 573.168 36.98C572.261 36.7133 571.521 36.4533 570.948 36.2C570.388 35.9333 569.901 35.54 569.488 35.02C569.088 34.4867 568.888 33.78 568.888 32.9C568.888 32.0733 569.095 31.3533 569.508 30.74C569.921 30.1267 570.501 29.66 571.248 29.34C571.995 29.0067 572.848 28.84 573.808 28.84C575.248 28.84 576.415 29.1933 577.308 29.9C578.215 30.5933 578.715 31.5667 578.808 32.82H575.728C575.701 32.34 575.495 31.9467 575.108 31.64C574.735 31.32 574.235 31.16 573.608 31.16C573.061 31.16 572.621 31.3 572.288 31.58C571.968 31.86 571.808 32.2667 571.808 32.8C571.808 33.1733 571.928 33.4867 572.168 33.74C572.421 33.98 572.728 34.18 573.088 34.34C573.461 34.4867 573.981 34.66 574.648 34.86C575.555 35.1267 576.295 35.3933 576.868 35.66C577.441 35.9267 577.935 36.3267 578.348 36.86C578.761 37.3933 578.968 38.0933 578.968 38.96C578.968 39.7067 578.775 40.4 578.388 41.04C578.001 41.68 577.435 42.1933 576.688 42.58C575.941 42.9533 575.055 43.14 574.028 43.14Z" fill="white"/>
<rect x="432" y="144" width="115" height="72" rx="36" fill="#404040"/>
<path d="M481.724 177.36C481.724 178.107 481.544 178.807 481.184 179.46C480.837 180.113 480.284 180.64 479.524 181.04C478.777 181.44 477.831 181.64 476.684 181.64H474.344V187H471.544V173.04H476.684C477.764 173.04 478.684 173.227 479.444 173.6C480.204 173.973 480.771 174.487 481.144 175.14C481.531 175.793 481.724 176.533 481.724 177.36ZM476.564 179.38C477.337 179.38 477.911 179.207 478.284 178.86C478.657 178.5 478.844 178 478.844 177.36C478.844 176 478.084 175.32 476.564 175.32H474.344V179.38H476.564ZM495.292 173.04V187H492.492V181.06H486.512V187H483.712V173.04H486.512V178.78H492.492V173.04H495.292ZM508.228 177.36C508.228 178.107 508.048 178.807 507.688 179.46C507.341 180.113 506.788 180.64 506.028 181.04C505.281 181.44 504.335 181.64 503.188 181.64H500.848V187H498.048V173.04H503.188C504.268 173.04 505.188 173.227 505.948 173.6C506.708 173.973 507.275 174.487 507.648 175.14C508.035 175.793 508.228 176.533 508.228 177.36ZM503.068 179.38C503.841 179.38 504.415 179.207 504.788 178.86C505.161 178.5 505.348 178 505.348 177.36C505.348 176 504.588 175.32 503.068 175.32H500.848V179.38H503.068Z" fill="white"/>
<rect x="702" y="288" width="191" height="72" rx="36" fill="#404040"/>
<path d="M753.985 302.04C755.451 302.04 756.738 302.327 757.845 302.9C758.965 303.473 759.825 304.293 760.425 305.36C761.038 306.413 761.345 307.64 761.345 309.04C761.345 310.44 761.038 311.667 760.425 312.72C759.825 313.76 758.965 314.567 757.845 315.14C756.738 315.713 755.451 316 753.985 316H749.105V302.04H753.985ZM753.885 313.62C755.351 313.62 756.485 313.22 757.285 312.42C758.085 311.62 758.485 310.493 758.485 309.04C758.485 307.587 758.085 306.453 757.285 305.64C756.485 304.813 755.351 304.4 753.885 304.4H751.905V313.62H753.885ZM762.721 310.42C762.721 309.3 762.941 308.307 763.381 307.44C763.834 306.573 764.441 305.907 765.201 305.44C765.974 304.973 766.834 304.74 767.781 304.74C768.607 304.74 769.327 304.907 769.941 305.24C770.567 305.573 771.067 305.993 771.441 306.5V304.92H774.261V316H771.441V314.38C771.081 314.9 770.581 315.333 769.941 315.68C769.314 316.013 768.587 316.18 767.761 316.18C766.827 316.18 765.974 315.94 765.201 315.46C764.441 314.98 763.834 314.307 763.381 313.44C762.941 312.56 762.721 311.553 762.721 310.42ZM771.441 310.46C771.441 309.78 771.307 309.2 771.041 308.72C770.774 308.227 770.414 307.853 769.961 307.6C769.507 307.333 769.021 307.2 768.501 307.2C767.981 307.2 767.501 307.327 767.061 307.58C766.621 307.833 766.261 308.207 765.981 308.7C765.714 309.18 765.581 309.753 765.581 310.42C765.581 311.087 765.714 311.673 765.981 312.18C766.261 312.673 766.621 313.053 767.061 313.32C767.514 313.587 767.994 313.72 768.501 313.72C769.021 313.72 769.507 313.593 769.961 313.34C770.414 313.073 770.774 312.7 771.041 312.22C771.307 311.727 771.441 311.14 771.441 310.46ZM780.255 307.22V312.58C780.255 312.953 780.342 313.227 780.515 313.4C780.702 313.56 781.009 313.64 781.435 313.64H782.735V316H780.975C778.615 316 777.435 314.853 777.435 312.56V307.22H776.115V304.92H777.435V302.18H780.255V304.92H782.735V307.22H780.255ZM784.029 310.42C784.029 309.3 784.249 308.307 784.689 307.44C785.142 306.573 785.749 305.907 786.509 305.44C787.282 304.973 788.142 304.74 789.089 304.74C789.916 304.74 790.636 304.907 791.249 305.24C791.876 305.573 792.376 305.993 792.749 306.5V304.92H795.569V316H792.749V314.38C792.389 314.9 791.889 315.333 791.249 315.68C790.622 316.013 789.896 316.18 789.069 316.18C788.136 316.18 787.282 315.94 786.509 315.46C785.749 314.98 785.142 314.307 784.689 313.44C784.249 312.56 784.029 311.553 784.029 310.42ZM792.749 310.46C792.749 309.78 792.616 309.2 792.349 308.72C792.082 308.227 791.722 307.853 791.269 307.6C790.816 307.333 790.329 307.2 789.809 307.2C789.289 307.2 788.809 307.327 788.369 307.58C787.929 307.833 787.569 308.207 787.289 308.7C787.022 309.18 786.889 309.753 786.889 310.42C786.889 311.087 787.022 311.673 787.289 312.18C787.569 312.673 787.929 313.053 788.369 313.32C788.822 313.587 789.302 313.72 789.809 313.72C790.329 313.72 790.816 313.593 791.269 313.34C791.722 313.073 792.082 312.7 792.349 312.22C792.616 311.727 792.749 311.14 792.749 310.46ZM801.104 306.54C801.464 306.007 801.957 305.573 802.584 305.24C803.224 304.907 803.95 304.74 804.764 304.74C805.71 304.74 806.564 304.973 807.324 305.44C808.097 305.907 808.704 306.573 809.144 307.44C809.597 308.293 809.824 309.287 809.824 310.42C809.824 311.553 809.597 312.56 809.144 313.44C808.704 314.307 808.097 314.98 807.324 315.46C806.564 315.94 805.71 316.18 804.764 316.18C803.937 316.18 803.21 316.02 802.584 315.7C801.97 315.367 801.477 314.94 801.104 314.42V316H798.304V301.2H801.104V306.54ZM806.964 310.42C806.964 309.753 806.824 309.18 806.544 308.7C806.277 308.207 805.917 307.833 805.464 307.58C805.024 307.327 804.544 307.2 804.024 307.2C803.517 307.2 803.037 307.333 802.584 307.6C802.144 307.853 801.784 308.227 801.504 308.72C801.237 309.213 801.104 309.793 801.104 310.46C801.104 311.127 801.237 311.707 801.504 312.2C801.784 312.693 802.144 313.073 802.584 313.34C803.037 313.593 803.517 313.72 804.024 313.72C804.544 313.72 805.024 313.587 805.464 313.32C805.917 313.053 806.277 312.673 806.544 312.18C806.824 311.687 806.964 311.1 806.964 310.42ZM811.139 310.42C811.139 309.3 811.359 308.307 811.799 307.44C812.252 306.573 812.859 305.907 813.619 305.44C814.392 304.973 815.252 304.74 816.199 304.74C817.025 304.74 817.745 304.907 818.359 305.24C818.985 305.573 819.485 305.993 819.859 306.5V304.92H822.679V316H819.859V314.38C819.499 314.9 818.999 315.333 818.359 315.68C817.732 316.013 817.005 316.18 816.179 316.18C815.245 316.18 814.392 315.94 813.619 315.46C812.859 314.98 812.252 314.307 811.799 313.44C811.359 312.56 811.139 311.553 811.139 310.42ZM819.859 310.46C819.859 309.78 819.725 309.2 819.459 308.72C819.192 308.227 818.832 307.853 818.379 307.6C817.925 307.333 817.439 307.2 816.919 307.2C816.399 307.2 815.919 307.327 815.479 307.58C815.039 307.833 814.679 308.207 814.399 308.7C814.132 309.18 813.999 309.753 813.999 310.42C813.999 311.087 814.132 311.673 814.399 312.18C814.679 312.673 815.039 313.053 815.479 313.32C815.932 313.587 816.412 313.72 816.919 313.72C817.439 313.72 817.925 313.593 818.379 313.34C818.832 313.073 819.192 312.7 819.459 312.22C819.725 311.727 819.859 311.14 819.859 310.46ZM829.653 316.18C828.747 316.18 827.933 316.02 827.213 315.7C826.493 315.367 825.92 314.92 825.493 314.36C825.08 313.8 824.853 313.18 824.813 312.5H827.633C827.687 312.927 827.893 313.28 828.253 313.56C828.627 313.84 829.087 313.98 829.633 313.98C830.167 313.98 830.58 313.873 830.873 313.66C831.18 313.447 831.333 313.173 831.333 312.84C831.333 312.48 831.147 312.213 830.773 312.04C830.413 311.853 829.833 311.653 829.033 311.44C828.207 311.24 827.527 311.033 826.993 310.82C826.473 310.607 826.02 310.28 825.633 309.84C825.26 309.4 825.073 308.807 825.073 308.06C825.073 307.447 825.247 306.887 825.593 306.38C825.953 305.873 826.46 305.473 827.113 305.18C827.78 304.887 828.56 304.74 829.453 304.74C830.773 304.74 831.827 305.073 832.613 305.74C833.4 306.393 833.833 307.28 833.913 308.4H831.233C831.193 307.96 831.007 307.613 830.673 307.36C830.353 307.093 829.92 306.96 829.373 306.96C828.867 306.96 828.473 307.053 828.193 307.24C827.927 307.427 827.793 307.687 827.793 308.02C827.793 308.393 827.98 308.68 828.353 308.88C828.727 309.067 829.307 309.26 830.093 309.46C830.893 309.66 831.553 309.867 832.073 310.08C832.593 310.293 833.04 310.627 833.413 311.08C833.8 311.52 834 312.107 834.013 312.84C834.013 313.48 833.833 314.053 833.473 314.56C833.127 315.067 832.62 315.467 831.953 315.76C831.3 316.04 830.533 316.18 829.653 316.18ZM846.612 310.22C846.612 310.62 846.585 310.98 846.532 311.3H838.432C838.498 312.1 838.778 312.727 839.272 313.18C839.765 313.633 840.372 313.86 841.092 313.86C842.132 313.86 842.872 313.413 843.312 312.52H846.332C846.012 313.587 845.398 314.467 844.492 315.16C843.585 315.84 842.472 316.18 841.152 316.18C840.085 316.18 839.125 315.947 838.272 315.48C837.432 315 836.772 314.327 836.292 313.46C835.825 312.593 835.592 311.593 835.592 310.46C835.592 309.313 835.825 308.307 836.292 307.44C836.758 306.573 837.412 305.907 838.252 305.44C839.092 304.973 840.058 304.74 841.152 304.74C842.205 304.74 843.145 304.967 843.972 305.42C844.812 305.873 845.458 306.52 845.912 307.36C846.378 308.187 846.612 309.14 846.612 310.22ZM843.712 309.42C843.698 308.7 843.438 308.127 842.932 307.7C842.425 307.26 841.805 307.04 841.072 307.04C840.378 307.04 839.792 307.253 839.312 307.68C838.845 308.093 838.558 308.673 838.452 309.42H843.712ZM744.852 332.04V346H742.052V336.92L738.312 346H736.192L732.432 336.92V346H729.632V332.04H732.812L737.252 342.42L741.692 332.04H744.852ZM746.9 340.42C746.9 339.3 747.12 338.307 747.56 337.44C748.014 336.573 748.62 335.907 749.38 335.44C750.154 334.973 751.014 334.74 751.96 334.74C752.787 334.74 753.507 334.907 754.12 335.24C754.747 335.573 755.247 335.993 755.62 336.5V334.92H758.44V346H755.62V344.38C755.26 344.9 754.76 345.333 754.12 345.68C753.494 346.013 752.767 346.18 751.94 346.18C751.007 346.18 750.154 345.94 749.38 345.46C748.62 344.98 748.014 344.307 747.56 343.44C747.12 342.56 746.9 341.553 746.9 340.42ZM755.62 340.46C755.62 339.78 755.487 339.2 755.22 338.72C754.954 338.227 754.594 337.853 754.14 337.6C753.687 337.333 753.2 337.2 752.68 337.2C752.16 337.2 751.68 337.327 751.24 337.58C750.8 337.833 750.44 338.207 750.16 338.7C749.894 339.18 749.76 339.753 749.76 340.42C749.76 341.087 749.894 341.673 750.16 342.18C750.44 342.673 750.8 343.053 751.24 343.32C751.694 343.587 752.174 343.72 752.68 343.72C753.2 343.72 753.687 343.593 754.14 343.34C754.594 343.073 754.954 342.7 755.22 342.22C755.487 341.727 755.62 341.14 755.62 340.46ZM767.315 334.76C768.635 334.76 769.702 335.18 770.515 336.02C771.328 336.847 771.735 338.007 771.735 339.5V346H768.935V339.88C768.935 339 768.715 338.327 768.275 337.86C767.835 337.38 767.235 337.14 766.475 337.14C765.702 337.14 765.088 337.38 764.635 337.86C764.195 338.327 763.975 339 763.975 339.88V346H761.175V334.92H763.975V336.3C764.348 335.82 764.822 335.447 765.395 335.18C765.982 334.9 766.622 334.76 767.315 334.76ZM773.678 340.42C773.678 339.3 773.898 338.307 774.338 337.44C774.791 336.573 775.398 335.907 776.158 335.44C776.931 334.973 777.791 334.74 778.738 334.74C779.564 334.74 780.284 334.907 780.898 335.24C781.524 335.573 782.024 335.993 782.398 336.5V334.92H785.218V346H782.398V344.38C782.038 344.9 781.538 345.333 780.898 345.68C780.271 346.013 779.544 346.18 778.718 346.18C777.784 346.18 776.931 345.94 776.158 345.46C775.398 344.98 774.791 344.307 774.338 343.44C773.898 342.56 773.678 341.553 773.678 340.42ZM782.398 340.46C782.398 339.78 782.264 339.2 781.998 338.72C781.731 338.227 781.371 337.853 780.918 337.6C780.464 337.333 779.978 337.2 779.458 337.2C778.938 337.2 778.458 337.327 778.018 337.58C777.578 337.833 777.218 338.207 776.938 338.7C776.671 339.18 776.538 339.753 776.538 340.42C776.538 341.087 776.671 341.673 776.938 342.18C777.218 342.673 777.578 343.053 778.018 343.32C778.471 343.587 778.951 343.72 779.458 343.72C779.978 343.72 780.464 343.593 780.918 343.34C781.371 343.073 781.731 342.7 781.998 342.22C782.264 341.727 782.398 341.14 782.398 340.46ZM792.292 334.74C793.119 334.74 793.846 334.907 794.472 335.24C795.099 335.56 795.592 335.98 795.952 336.5V334.92H798.772V346.08C798.772 347.107 798.566 348.02 798.152 348.82C797.739 349.633 797.119 350.273 796.292 350.74C795.466 351.22 794.466 351.46 793.292 351.46C791.719 351.46 790.426 351.093 789.412 350.36C788.412 349.627 787.846 348.627 787.712 347.36H790.492C790.639 347.867 790.952 348.267 791.432 348.56C791.926 348.867 792.519 349.02 793.212 349.02C794.026 349.02 794.686 348.773 795.192 348.28C795.699 347.8 795.952 347.067 795.952 346.08V344.36C795.592 344.88 795.092 345.313 794.452 345.66C793.826 346.007 793.106 346.18 792.292 346.18C791.359 346.18 790.506 345.94 789.732 345.46C788.959 344.98 788.346 344.307 787.892 343.44C787.452 342.56 787.232 341.553 787.232 340.42C787.232 339.3 787.452 338.307 787.892 337.44C788.346 336.573 788.952 335.907 789.712 335.44C790.486 334.973 791.346 334.74 792.292 334.74ZM795.952 340.46C795.952 339.78 795.819 339.2 795.552 338.72C795.286 338.227 794.926 337.853 794.472 337.6C794.019 337.333 793.532 337.2 793.012 337.2C792.492 337.2 792.012 337.327 791.572 337.58C791.132 337.833 790.772 338.207 790.492 338.7C790.226 339.18 790.092 339.753 790.092 340.42C790.092 341.087 790.226 341.673 790.492 342.18C790.772 342.673 791.132 343.053 791.572 343.32C792.026 343.587 792.506 343.72 793.012 343.72C793.532 343.72 794.019 343.593 794.472 343.34C794.926 343.073 795.286 342.7 795.552 342.22C795.819 341.727 795.952 341.14 795.952 340.46ZM811.807 340.22C811.807 340.62 811.78 340.98 811.727 341.3H803.627C803.694 342.1 803.974 342.727 804.467 343.18C804.96 343.633 805.567 343.86 806.287 343.86C807.327 343.86 808.067 343.413 808.507 342.52H811.527C811.207 343.587 810.594 344.467 809.687 345.16C808.78 345.84 807.667 346.18 806.347 346.18C805.28 346.18 804.32 345.947 803.467 345.48C802.627 345 801.967 344.327 801.487 343.46C801.02 342.593 800.787 341.593 800.787 340.46C800.787 339.313 801.02 338.307 801.487 337.44C801.954 336.573 802.607 335.907 803.447 335.44C804.287 334.973 805.254 334.74 806.347 334.74C807.4 334.74 808.34 334.967 809.167 335.42C810.007 335.873 810.654 336.52 811.107 337.36C811.574 338.187 811.807 339.14 811.807 340.22ZM808.907 339.42C808.894 338.7 808.634 338.127 808.127 337.7C807.62 337.26 807 337.04 806.267 337.04C805.574 337.04 804.987 337.253 804.507 337.68C804.04 338.093 803.754 338.673 803.647 339.42H808.907ZM827.611 334.76C828.971 334.76 830.064 335.18 830.891 336.02C831.731 336.847 832.151 338.007 832.151 339.5V346H829.351V339.88C829.351 339.013 829.131 338.353 828.691 337.9C828.251 337.433 827.651 337.2 826.891 337.2C826.131 337.2 825.524 337.433 825.071 337.9C824.631 338.353 824.411 339.013 824.411 339.88V346H821.611V339.88C821.611 339.013 821.391 338.353 820.951 337.9C820.511 337.433 819.911 337.2 819.151 337.2C818.377 337.2 817.764 337.433 817.311 337.9C816.871 338.353 816.651 339.013 816.651 339.88V346H813.851V334.92H816.651V336.26C817.011 335.793 817.471 335.427 818.031 335.16C818.604 334.893 819.231 334.76 819.911 334.76C820.777 334.76 821.551 334.947 822.231 335.32C822.911 335.68 823.437 336.2 823.811 336.88C824.171 336.24 824.691 335.727 825.371 335.34C826.064 334.953 826.811 334.76 827.611 334.76ZM845.108 340.22C845.108 340.62 845.081 340.98 845.028 341.3H836.928C836.994 342.1 837.274 342.727 837.768 343.18C838.261 343.633 838.868 343.86 839.588 343.86C840.628 343.86 841.368 343.413 841.808 342.52H844.828C844.508 343.587 843.894 344.467 842.988 345.16C842.081 345.84 840.968 346.18 839.648 346.18C838.581 346.18 837.621 345.947 836.768 345.48C835.928 345 835.268 344.327 834.788 343.46C834.321 342.593 834.088 341.593 834.088 340.46C834.088 339.313 834.321 338.307 834.788 337.44C835.254 336.573 835.908 335.907 836.748 335.44C837.588 334.973 838.554 334.74 839.648 334.74C840.701 334.74 841.641 334.967 842.468 335.42C843.308 335.873 843.954 336.52 844.408 337.36C844.874 338.187 845.108 339.14 845.108 340.22ZM842.208 339.42C842.194 338.7 841.934 338.127 841.428 337.7C840.921 337.26 840.301 337.04 839.568 337.04C838.874 337.04 838.288 337.253 837.808 337.68C837.341 338.093 837.054 338.673 836.948 339.42H842.208ZM853.291 334.76C854.611 334.76 855.678 335.18 856.491 336.02C857.305 336.847 857.711 338.007 857.711 339.5V346H854.911V339.88C854.911 339 854.691 338.327 854.251 337.86C853.811 337.38 853.211 337.14 852.451 337.14C851.678 337.14 851.065 337.38 850.611 337.86C850.171 338.327 849.951 339 849.951 339.88V346H847.151V334.92H849.951V336.3C850.325 335.82 850.798 335.447 851.371 335.18C851.958 334.9 852.598 334.76 853.291 334.76ZM863.634 337.22V342.58C863.634 342.953 863.721 343.227 863.894 343.4C864.081 343.56 864.387 343.64 864.814 343.64H866.114V346H864.354C861.994 346 860.814 344.853 860.814 342.56V337.22H859.494V334.92H860.814V332.18H863.634V334.92H866.114V337.22H863.634Z" fill="white"/>
<rect x="559" y="194" width="158" height="72" rx="36" fill="#404040"/>
<path d="M599.083 237.14C598.109 237.14 597.229 236.973 596.443 236.64C595.669 236.307 595.056 235.827 594.603 235.2C594.149 234.573 593.916 233.833 593.903 232.98H596.903C596.943 233.553 597.143 234.007 597.503 234.34C597.876 234.673 598.383 234.84 599.023 234.84C599.676 234.84 600.189 234.687 600.563 234.38C600.936 234.06 601.123 233.647 601.123 233.14C601.123 232.727 600.996 232.387 600.743 232.12C600.489 231.853 600.169 231.647 599.783 231.5C599.409 231.34 598.889 231.167 598.223 230.98C597.316 230.713 596.576 230.453 596.003 230.2C595.443 229.933 594.956 229.54 594.543 229.02C594.143 228.487 593.943 227.78 593.943 226.9C593.943 226.073 594.149 225.353 594.563 224.74C594.976 224.127 595.556 223.66 596.303 223.34C597.049 223.007 597.903 222.84 598.863 222.84C600.303 222.84 601.469 223.193 602.363 223.9C603.269 224.593 603.769 225.567 603.863 226.82H600.783C600.756 226.34 600.549 225.947 600.163 225.64C599.789 225.32 599.289 225.16 598.663 225.16C598.116 225.16 597.676 225.3 597.343 225.58C597.023 225.86 596.863 226.267 596.863 226.8C596.863 227.173 596.983 227.487 597.223 227.74C597.476 227.98 597.783 228.18 598.143 228.34C598.516 228.487 599.036 228.66 599.703 228.86C600.609 229.127 601.349 229.393 601.923 229.66C602.496 229.927 602.989 230.327 603.403 230.86C603.816 231.393 604.023 232.093 604.023 232.96C604.023 233.707 603.829 234.4 603.443 235.04C603.056 235.68 602.489 236.193 601.743 236.58C600.996 236.953 600.109 237.14 599.083 237.14ZM617.05 225.92L610.19 242.24H607.21L609.61 236.72L605.17 225.92H608.31L611.17 233.66L614.07 225.92H617.05ZM632.32 225.76C633.68 225.76 634.773 226.18 635.6 227.02C636.44 227.847 636.86 229.007 636.86 230.5V237H634.06V230.88C634.06 230.013 633.84 229.353 633.4 228.9C632.96 228.433 632.36 228.2 631.6 228.2C630.84 228.2 630.233 228.433 629.78 228.9C629.34 229.353 629.12 230.013 629.12 230.88V237H626.32V230.88C626.32 230.013 626.1 229.353 625.66 228.9C625.22 228.433 624.62 228.2 623.86 228.2C623.086 228.2 622.473 228.433 622.02 228.9C621.58 229.353 621.36 230.013 621.36 230.88V237H618.56V225.92H621.36V227.26C621.72 226.793 622.18 226.427 622.74 226.16C623.313 225.893 623.94 225.76 624.62 225.76C625.486 225.76 626.26 225.947 626.94 226.32C627.62 226.68 628.146 227.2 628.52 227.88C628.88 227.24 629.4 226.727 630.08 226.34C630.773 225.953 631.52 225.76 632.32 225.76ZM644.597 228.22H642.657V237H639.817V228.22H638.557V225.92H639.817V225.36C639.817 224 640.203 223 640.977 222.36C641.75 221.72 642.917 221.42 644.477 221.46V223.82C643.797 223.807 643.323 223.92 643.057 224.16C642.79 224.4 642.657 224.833 642.657 225.46V225.92H644.597V228.22ZM651.331 237.18C650.265 237.18 649.305 236.947 648.451 236.48C647.598 236 646.925 235.327 646.431 234.46C645.951 233.593 645.711 232.593 645.711 231.46C645.711 230.327 645.958 229.327 646.451 228.46C646.958 227.593 647.645 226.927 648.511 226.46C649.378 225.98 650.345 225.74 651.411 225.74C652.478 225.74 653.445 225.98 654.311 226.46C655.178 226.927 655.858 227.593 656.351 228.46C656.858 229.327 657.111 230.327 657.111 231.46C657.111 232.593 656.851 233.593 656.331 234.46C655.825 235.327 655.131 236 654.251 236.48C653.385 236.947 652.411 237.18 651.331 237.18ZM651.331 234.74C651.838 234.74 652.311 234.62 652.751 234.38C653.205 234.127 653.565 233.753 653.831 233.26C654.098 232.767 654.231 232.167 654.231 231.46C654.231 230.407 653.951 229.6 653.391 229.04C652.845 228.467 652.171 228.18 651.371 228.18C650.571 228.18 649.898 228.467 649.351 229.04C648.818 229.6 648.551 230.407 648.551 231.46C648.551 232.513 648.811 233.327 649.331 233.9C649.865 234.46 650.531 234.74 651.331 234.74ZM665.305 225.76C666.625 225.76 667.692 226.18 668.505 227.02C669.318 227.847 669.725 229.007 669.725 230.5V237H666.925V230.88C666.925 230 666.705 229.327 666.265 228.86C665.825 228.38 665.225 228.14 664.465 228.14C663.692 228.14 663.078 228.38 662.625 228.86C662.185 229.327 661.965 230 661.965 230.88V237H659.165V225.92H661.965V227.3C662.338 226.82 662.812 226.447 663.385 226.18C663.972 225.9 664.612 225.76 665.305 225.76ZM682.988 225.92L676.128 242.24H673.148L675.548 236.72L671.108 225.92H674.248L677.108 233.66L680.008 225.92H682.988Z" fill="white"/>
<rect x="559" y="81" width="158" height="72" rx="36" fill="#404040"/>
<path d="M605.051 121.78H609.651V124H602.251V110.04H605.051V121.78ZM610.711 118.42C610.711 117.3 610.931 116.307 611.371 115.44C611.824 114.573 612.431 113.907 613.191 113.44C613.964 112.973 614.824 112.74 615.771 112.74C616.597 112.74 617.317 112.907 617.931 113.24C618.557 113.573 619.057 113.993 619.431 114.5V112.92H622.251V124H619.431V122.38C619.071 122.9 618.571 123.333 617.931 123.68C617.304 124.013 616.577 124.18 615.751 124.18C614.817 124.18 613.964 123.94 613.191 123.46C612.431 122.98 611.824 122.307 611.371 121.44C610.931 120.56 610.711 119.553 610.711 118.42ZM619.431 118.46C619.431 117.78 619.297 117.2 619.031 116.72C618.764 116.227 618.404 115.853 617.951 115.6C617.497 115.333 617.011 115.2 616.491 115.2C615.971 115.2 615.491 115.327 615.051 115.58C614.611 115.833 614.251 116.207 613.971 116.7C613.704 117.18 613.571 117.753 613.571 118.42C613.571 119.087 613.704 119.673 613.971 120.18C614.251 120.673 614.611 121.053 615.051 121.32C615.504 121.587 615.984 121.72 616.491 121.72C617.011 121.72 617.497 121.593 617.951 121.34C618.404 121.073 618.764 120.7 619.031 120.22C619.297 119.727 619.431 119.14 619.431 118.46ZM627.785 114.64C628.145 114.053 628.612 113.593 629.185 113.26C629.772 112.927 630.439 112.76 631.185 112.76V115.7H630.445C629.565 115.7 628.899 115.907 628.445 116.32C628.005 116.733 627.785 117.453 627.785 118.48V124H624.985V112.92H627.785V114.64ZM632.351 118.42C632.351 117.3 632.571 116.307 633.011 115.44C633.465 114.573 634.071 113.907 634.831 113.44C635.605 112.973 636.465 112.74 637.411 112.74C638.238 112.74 638.958 112.907 639.571 113.24C640.198 113.573 640.698 113.993 641.071 114.5V112.92H643.891V124H641.071V122.38C640.711 122.9 640.211 123.333 639.571 123.68C638.945 124.013 638.218 124.18 637.391 124.18C636.458 124.18 635.605 123.94 634.831 123.46C634.071 122.98 633.465 122.307 633.011 121.44C632.571 120.56 632.351 119.553 632.351 118.42ZM641.071 118.46C641.071 117.78 640.938 117.2 640.671 116.72C640.405 116.227 640.045 115.853 639.591 115.6C639.138 115.333 638.651 115.2 638.131 115.2C637.611 115.2 637.131 115.327 636.691 115.58C636.251 115.833 635.891 116.207 635.611 116.7C635.345 117.18 635.211 117.753 635.211 118.42C635.211 119.087 635.345 119.673 635.611 120.18C635.891 120.673 636.251 121.053 636.691 121.32C637.145 121.587 637.625 121.72 638.131 121.72C638.651 121.72 639.138 121.593 639.591 121.34C640.045 121.073 640.405 120.7 640.671 120.22C640.938 119.727 641.071 119.14 641.071 118.46ZM651.246 121.42L654.046 112.92H657.026L652.926 124H649.526L645.446 112.92H648.446L651.246 121.42ZM668.899 118.22C668.899 118.62 668.872 118.98 668.819 119.3H660.719C660.785 120.1 661.065 120.727 661.559 121.18C662.052 121.633 662.659 121.86 663.379 121.86C664.419 121.86 665.159 121.413 665.599 120.52H668.619C668.299 121.587 667.685 122.467 666.779 123.16C665.872 123.84 664.759 124.18 663.439 124.18C662.372 124.18 661.412 123.947 660.559 123.48C659.719 123 659.059 122.327 658.579 121.46C658.112 120.593 657.879 119.593 657.879 118.46C657.879 117.313 658.112 116.307 658.579 115.44C659.045 114.573 659.699 113.907 660.539 113.44C661.379 112.973 662.345 112.74 663.439 112.74C664.492 112.74 665.432 112.967 666.259 113.42C667.099 113.873 667.745 114.52 668.199 115.36C668.665 116.187 668.899 117.14 668.899 118.22ZM665.999 117.42C665.985 116.7 665.725 116.127 665.219 115.7C664.712 115.26 664.092 115.04 663.359 115.04C662.665 115.04 662.079 115.253 661.599 115.68C661.132 116.093 660.845 116.673 660.739 117.42H665.999ZM673.743 109.2V124H670.943V109.2H673.743Z" fill="#FFD79C"/>
<rect x="687" width="206" height="72" rx="36" fill="#404040"/>
<path d="M745.809 29.1V39.12C745.809 40.36 745.429 41.34 744.669 42.06C743.922 42.78 742.935 43.14 741.709 43.14C740.482 43.14 739.489 42.78 738.729 42.06C737.982 41.34 737.609 40.36 737.609 39.12H739.909C739.922 39.7333 740.075 40.22 740.369 40.58C740.675 40.94 741.122 41.12 741.709 41.12C742.295 41.12 742.742 40.94 743.049 40.58C743.355 40.2067 743.509 39.72 743.509 39.12V29.1H745.809ZM748.758 37.44C748.758 36.3333 748.984 35.3533 749.438 34.5C749.904 33.6467 750.531 32.9867 751.318 32.52C752.118 32.04 752.998 31.8 753.958 31.8C754.824 31.8 755.578 31.9733 756.218 32.32C756.871 32.6533 757.391 33.0733 757.778 33.58V31.98H760.078V43H757.778V41.36C757.391 41.88 756.864 42.3133 756.198 42.66C755.531 43.0067 754.771 43.18 753.918 43.18C752.971 43.18 752.104 42.94 751.318 42.46C750.531 41.9667 749.904 41.2867 749.438 40.42C748.984 39.54 748.758 38.5467 748.758 37.44ZM757.778 37.48C757.778 36.72 757.618 36.06 757.298 35.5C756.991 34.94 756.584 34.5133 756.078 34.22C755.571 33.9267 755.024 33.78 754.438 33.78C753.851 33.78 753.304 33.9267 752.798 34.22C752.291 34.5 751.878 34.92 751.558 35.48C751.251 36.0267 751.098 36.68 751.098 37.44C751.098 38.2 751.251 38.8667 751.558 39.44C751.878 40.0133 752.291 40.4533 752.798 40.76C753.318 41.0533 753.864 41.2 754.438 41.2C755.024 41.2 755.571 41.0533 756.078 40.76C756.584 40.4667 756.991 40.04 757.298 39.48C757.618 38.9067 757.778 38.24 757.778 37.48ZM767.332 40.96L770.452 31.98H772.872L768.672 43H765.952L761.772 31.98H764.212L767.332 40.96ZM773.836 37.44C773.836 36.3333 774.062 35.3533 774.516 34.5C774.982 33.6467 775.609 32.9867 776.396 32.52C777.196 32.04 778.076 31.8 779.036 31.8C779.902 31.8 780.656 31.9733 781.296 32.32C781.949 32.6533 782.469 33.0733 782.856 33.58V31.98H785.156V43H782.856V41.36C782.469 41.88 781.942 42.3133 781.276 42.66C780.609 43.0067 779.849 43.18 778.996 43.18C778.049 43.18 777.182 42.94 776.396 42.46C775.609 41.9667 774.982 41.2867 774.516 40.42C774.062 39.54 773.836 38.5467 773.836 37.44ZM782.856 37.48C782.856 36.72 782.696 36.06 782.376 35.5C782.069 34.94 781.662 34.5133 781.156 34.22C780.649 33.9267 780.102 33.78 779.516 33.78C778.929 33.78 778.382 33.9267 777.876 34.22C777.369 34.5 776.956 34.92 776.636 35.48C776.329 36.0267 776.176 36.68 776.176 37.44C776.176 38.2 776.329 38.8667 776.636 39.44C776.956 40.0133 777.369 40.4533 777.876 40.76C778.396 41.0533 778.942 41.2 779.516 41.2C780.102 41.2 780.649 41.0533 781.156 40.76C781.662 40.4667 782.069 40.04 782.376 39.48C782.696 38.9067 782.856 38.24 782.856 37.48ZM792.15 43.18C791.284 43.18 790.504 43.0267 789.81 42.72C789.13 42.4 788.59 41.9733 788.19 41.44C787.79 40.8933 787.577 40.2867 787.55 39.62H789.91C789.95 40.0867 790.17 40.48 790.57 40.8C790.984 41.1067 791.497 41.26 792.11 41.26C792.75 41.26 793.244 41.14 793.59 40.9C793.95 40.6467 794.13 40.3267 794.13 39.94C794.13 39.5267 793.93 39.22 793.53 39.02C793.144 38.82 792.524 38.6 791.67 38.36C790.844 38.1333 790.17 37.9133 789.65 37.7C789.13 37.4867 788.677 37.16 788.29 36.72C787.917 36.28 787.73 35.7 787.73 34.98C787.73 34.3933 787.904 33.86 788.25 33.38C788.597 32.8867 789.09 32.5 789.73 32.22C790.384 31.94 791.13 31.8 791.97 31.8C793.224 31.8 794.23 32.12 794.99 32.76C795.764 33.3867 796.177 34.2467 796.23 35.34H793.95C793.91 34.8467 793.71 34.4533 793.35 34.16C792.99 33.8667 792.504 33.72 791.89 33.72C791.29 33.72 790.83 33.8333 790.51 34.06C790.19 34.2867 790.03 34.5867 790.03 34.96C790.03 35.2533 790.137 35.5 790.35 35.7C790.564 35.9 790.824 36.06 791.13 36.18C791.437 36.2867 791.89 36.4267 792.49 36.6C793.29 36.8133 793.944 37.0333 794.45 37.26C794.97 37.4733 795.417 37.7933 795.79 38.22C796.164 38.6467 796.357 39.2133 796.37 39.92C796.37 40.5467 796.197 41.1067 795.85 41.6C795.504 42.0933 795.01 42.48 794.37 42.76C793.744 43.04 793.004 43.18 792.15 43.18ZM798.074 37.48C798.074 36.3467 798.301 35.3533 798.754 34.5C799.221 33.6333 799.861 32.9667 800.674 32.5C801.487 32.0333 802.421 31.8 803.474 31.8C804.807 31.8 805.907 32.12 806.774 32.76C807.654 33.3867 808.247 34.2867 808.554 35.46H806.094C805.894 34.9133 805.574 34.4867 805.134 34.18C804.694 33.8733 804.141 33.72 803.474 33.72C802.541 33.72 801.794 34.0533 801.234 34.72C800.687 35.3733 800.414 36.2933 800.414 37.48C800.414 38.6667 800.687 39.5933 801.234 40.26C801.794 40.9267 802.541 41.26 803.474 41.26C804.794 41.26 805.667 40.68 806.094 39.52H808.554C808.234 40.64 807.634 41.5333 806.754 42.2C805.874 42.8533 804.781 43.18 803.474 43.18C802.421 43.18 801.487 42.9467 800.674 42.48C799.861 42 799.221 41.3333 798.754 40.48C798.301 39.6133 798.074 38.6133 798.074 37.48ZM813.106 33.58C813.44 33.02 813.88 32.5867 814.426 32.28C814.986 31.96 815.646 31.8 816.406 31.8V34.16H815.826C814.933 34.16 814.253 34.3867 813.786 34.84C813.333 35.2933 813.106 36.08 813.106 37.2V43H810.826V31.98H813.106V33.58ZM819.662 30.52C819.249 30.52 818.902 30.38 818.622 30.1C818.342 29.82 818.202 29.4733 818.202 29.06C818.202 28.6467 818.342 28.3 818.622 28.02C818.902 27.74 819.249 27.6 819.662 27.6C820.062 27.6 820.402 27.74 820.682 28.02C820.962 28.3 821.102 28.6467 821.102 29.06C821.102 29.4733 820.962 29.82 820.682 30.1C820.402 30.38 820.062 30.52 819.662 30.52ZM820.782 31.98V43H818.502V31.98H820.782ZM826.055 33.6C826.442 33.0933 826.969 32.6667 827.635 32.32C828.302 31.9733 829.055 31.8 829.895 31.8C830.855 31.8 831.729 32.04 832.515 32.52C833.315 32.9867 833.942 33.6467 834.395 34.5C834.849 35.3533 835.075 36.3333 835.075 37.44C835.075 38.5467 834.849 39.54 834.395 40.42C833.942 41.2867 833.315 41.9667 832.515 42.46C831.729 42.94 830.855 43.18 829.895 43.18C829.055 43.18 828.309 43.0133 827.655 42.68C827.002 42.3333 826.469 41.9067 826.055 41.4V48.24H823.775V31.98H826.055V33.6ZM832.755 37.44C832.755 36.68 832.595 36.0267 832.275 35.48C831.969 34.92 831.555 34.5 831.035 34.22C830.529 33.9267 829.982 33.78 829.395 33.78C828.822 33.78 828.275 33.9267 827.755 34.22C827.249 34.5133 826.835 34.94 826.515 35.5C826.209 36.06 826.055 36.72 826.055 37.48C826.055 38.24 826.209 38.9067 826.515 39.48C826.835 40.04 827.249 40.4667 827.755 40.76C828.275 41.0533 828.822 41.2 829.395 41.2C829.982 41.2 830.529 41.0533 831.035 40.76C831.555 40.4533 831.969 40.0133 832.275 39.44C832.595 38.8667 832.755 38.2 832.755 37.44ZM839.99 33.84V39.94C839.99 40.3533 840.083 40.6533 840.27 40.84C840.47 41.0133 840.803 41.1 841.27 41.1H842.67V43H840.87C839.843 43 839.057 42.76 838.51 42.28C837.963 41.8 837.69 41.02 837.69 39.94V33.84H836.39V31.98H837.69V29.24H839.99V31.98H842.67V33.84H839.99Z" fill="white"/>
<rect x="729" y="94" width="206" height="72" rx="36" fill="#404040"/>
<path d="M814.231 108.04L809.111 122H805.711L800.591 108.04H803.591L807.431 119.14L811.251 108.04H814.231ZM826.369 110.92V122H823.549V120.6C823.189 121.08 822.716 121.46 822.129 121.74C821.556 122.007 820.929 122.14 820.249 122.14C819.383 122.14 818.616 121.96 817.949 121.6C817.283 121.227 816.756 120.687 816.369 119.98C815.996 119.26 815.809 118.407 815.809 117.42V110.92H818.609V117.02C818.609 117.9 818.829 118.58 819.269 119.06C819.709 119.527 820.309 119.76 821.069 119.76C821.843 119.76 822.449 119.527 822.889 119.06C823.329 118.58 823.549 117.9 823.549 117.02V110.92H826.369ZM839.432 116.22C839.432 116.62 839.405 116.98 839.352 117.3H831.252C831.319 118.1 831.599 118.727 832.092 119.18C832.585 119.633 833.192 119.86 833.912 119.86C834.952 119.86 835.692 119.413 836.132 118.52H839.152C838.832 119.587 838.219 120.467 837.312 121.16C836.405 121.84 835.292 122.18 833.972 122.18C832.905 122.18 831.945 121.947 831.092 121.48C830.252 121 829.592 120.327 829.112 119.46C828.645 118.593 828.412 117.593 828.412 116.46C828.412 115.313 828.645 114.307 829.112 113.44C829.579 112.573 830.232 111.907 831.072 111.44C831.912 110.973 832.879 110.74 833.972 110.74C835.025 110.74 835.965 110.967 836.792 111.42C837.632 111.873 838.279 112.52 838.732 113.36C839.199 114.187 839.432 115.14 839.432 116.22ZM836.532 115.42C836.519 114.7 836.259 114.127 835.752 113.7C835.245 113.26 834.625 113.04 833.892 113.04C833.199 113.04 832.612 113.253 832.132 113.68C831.665 114.093 831.379 114.673 831.272 115.42H836.532ZM849.616 108.04V117.84C849.616 119.2 849.222 120.26 848.436 121.02C847.649 121.767 846.596 122.14 845.276 122.14C843.942 122.14 842.862 121.753 842.036 120.98C841.222 120.207 840.816 119.127 840.816 117.74H843.616C843.629 118.34 843.769 118.807 844.036 119.14C844.316 119.473 844.716 119.64 845.236 119.64C845.742 119.64 846.129 119.48 846.396 119.16C846.662 118.84 846.796 118.4 846.796 117.84V108.04H849.616ZM857.702 122.14C856.729 122.14 855.849 121.973 855.062 121.64C854.289 121.307 853.675 120.827 853.222 120.2C852.769 119.573 852.535 118.833 852.522 117.98H855.522C855.562 118.553 855.762 119.007 856.122 119.34C856.495 119.673 857.002 119.84 857.642 119.84C858.295 119.84 858.809 119.687 859.182 119.38C859.555 119.06 859.742 118.647 859.742 118.14C859.742 117.727 859.615 117.387 859.362 117.12C859.109 116.853 858.789 116.647 858.402 116.5C858.029 116.34 857.509 116.167 856.842 115.98C855.935 115.713 855.195 115.453 854.622 115.2C854.062 114.933 853.575 114.54 853.162 114.02C852.762 113.487 852.562 112.78 852.562 111.9C852.562 111.073 852.769 110.353 853.182 109.74C853.595 109.127 854.175 108.66 854.922 108.34C855.669 108.007 856.522 107.84 857.482 107.84C858.922 107.84 860.089 108.193 860.982 108.9C861.889 109.593 862.389 110.567 862.482 111.82H859.402C859.375 111.34 859.169 110.947 858.782 110.64C858.409 110.32 857.909 110.16 857.282 110.16C856.735 110.16 856.295 110.3 855.962 110.58C855.642 110.86 855.482 111.267 855.482 111.8C855.482 112.173 855.602 112.487 855.842 112.74C856.095 112.98 856.402 113.18 856.762 113.34C857.135 113.487 857.655 113.66 858.322 113.86C859.229 114.127 859.969 114.393 860.542 114.66C861.115 114.927 861.609 115.327 862.022 115.86C862.435 116.393 862.642 117.093 862.642 117.96C862.642 118.707 862.449 119.4 862.062 120.04C861.675 120.68 861.109 121.193 860.362 121.58C859.615 121.953 858.729 122.14 857.702 122.14Z" fill="#FFD79C"/>
<path d="M807.683 152H804.883L798.543 142.42V152H795.743V138.02H798.543L804.883 147.62V138.02H807.683V152ZM820.91 140.92V152H818.09V150.6C817.73 151.08 817.257 151.46 816.67 151.74C816.097 152.007 815.47 152.14 814.79 152.14C813.924 152.14 813.157 151.96 812.49 151.6C811.824 151.227 811.297 150.687 810.91 149.98C810.537 149.26 810.35 148.407 810.35 147.42V140.92H813.15V147.02C813.15 147.9 813.37 148.58 813.81 149.06C814.25 149.527 814.85 149.76 815.61 149.76C816.384 149.76 816.99 149.527 817.43 149.06C817.87 148.58 818.09 147.9 818.09 147.02V140.92H820.91ZM829.793 152L827.513 148.56L825.493 152H822.493L826.113 146.44L822.453 140.92H825.613L827.873 144.34L829.913 140.92H832.913L829.273 146.44L832.953 152H829.793ZM837.734 143.22V148.58C837.734 148.953 837.82 149.227 837.994 149.4C838.18 149.56 838.487 149.64 838.914 149.64H840.214V152H838.454C836.094 152 834.914 150.853 834.914 148.56V143.22H833.594V140.92H834.914V138.18H837.734V140.92H840.214V143.22H837.734ZM843.468 152.14C842.961 152.14 842.541 151.987 842.208 151.68C841.888 151.36 841.728 150.967 841.728 150.5C841.728 150.033 841.888 149.647 842.208 149.34C842.541 149.02 842.961 148.86 843.468 148.86C843.961 148.86 844.368 149.02 844.688 149.34C845.008 149.647 845.168 150.033 845.168 150.5C845.168 150.967 845.008 151.36 844.688 151.68C844.368 151.987 843.961 152.14 843.468 152.14ZM855.563 138.04V147.84C855.563 149.2 855.17 150.26 854.383 151.02C853.596 151.767 852.543 152.14 851.223 152.14C849.89 152.14 848.81 151.753 847.983 150.98C847.17 150.207 846.763 149.127 846.763 147.74H849.563C849.576 148.34 849.716 148.807 849.983 149.14C850.263 149.473 850.663 149.64 851.183 149.64C851.69 149.64 852.076 149.48 852.343 149.16C852.61 148.84 852.743 148.4 852.743 147.84V138.04H855.563ZM863.649 152.14C862.676 152.14 861.796 151.973 861.009 151.64C860.236 151.307 859.623 150.827 859.169 150.2C858.716 149.573 858.483 148.833 858.469 147.98H861.469C861.509 148.553 861.709 149.007 862.069 149.34C862.443 149.673 862.949 149.84 863.589 149.84C864.243 149.84 864.756 149.687 865.129 149.38C865.503 149.06 865.689 148.647 865.689 148.14C865.689 147.727 865.563 147.387 865.309 147.12C865.056 146.853 864.736 146.647 864.349 146.5C863.976 146.34 863.456 146.167 862.789 145.98C861.883 145.713 861.143 145.453 860.569 145.2C860.009 144.933 859.523 144.54 859.109 144.02C858.709 143.487 858.509 142.78 858.509 141.9C858.509 141.073 858.716 140.353 859.129 139.74C859.543 139.127 860.123 138.66 860.869 138.34C861.616 138.007 862.469 137.84 863.429 137.84C864.869 137.84 866.036 138.193 866.929 138.9C867.836 139.593 868.336 140.567 868.429 141.82H865.349C865.323 141.34 865.116 140.947 864.729 140.64C864.356 140.32 863.856 140.16 863.229 140.16C862.683 140.16 862.243 140.3 861.909 140.58C861.589 140.86 861.429 141.267 861.429 141.8C861.429 142.173 861.549 142.487 861.789 142.74C862.043 142.98 862.349 143.18 862.709 143.34C863.083 143.487 863.603 143.66 864.269 143.86C865.176 144.127 865.916 144.393 866.489 144.66C867.063 144.927 867.556 145.327 867.969 145.86C868.383 146.393 868.589 147.093 868.589 147.96C868.589 148.707 868.396 149.4 868.009 150.04C867.623 150.68 867.056 151.193 866.309 151.58C865.563 151.953 864.676 152.14 863.649 152.14Z" fill="white"/>
<rect x="729" y="194" width="206" height="72" rx="36" fill="#404040"/>
<path d="M797.152 222L794.072 216.56H792.752V222H789.952V208.04H795.192C796.272 208.04 797.192 208.233 797.952 208.62C798.712 208.993 799.279 209.507 799.652 210.16C800.039 210.8 800.232 211.52 800.232 212.32C800.232 213.24 799.966 214.073 799.432 214.82C798.899 215.553 798.106 216.06 797.052 216.34L800.392 222H797.152ZM792.752 214.46H795.092C795.852 214.46 796.419 214.28 796.792 213.92C797.166 213.547 797.352 213.033 797.352 212.38C797.352 211.74 797.166 211.247 796.792 210.9C796.419 210.54 795.852 210.36 795.092 210.36H792.752V214.46ZM813.065 216.22C813.065 216.62 813.038 216.98 812.985 217.3H804.885C804.951 218.1 805.231 218.727 805.725 219.18C806.218 219.633 806.825 219.86 807.545 219.86C808.585 219.86 809.325 219.413 809.765 218.52H812.785C812.465 219.587 811.851 220.467 810.945 221.16C810.038 221.84 808.925 222.18 807.605 222.18C806.538 222.18 805.578 221.947 804.725 221.48C803.885 221 803.225 220.327 802.745 219.46C802.278 218.593 802.045 217.593 802.045 216.46C802.045 215.313 802.278 214.307 802.745 213.44C803.211 212.573 803.865 211.907 804.705 211.44C805.545 210.973 806.511 210.74 807.605 210.74C808.658 210.74 809.598 210.967 810.425 211.42C811.265 211.873 811.911 212.52 812.365 213.36C812.831 214.187 813.065 215.14 813.065 216.22ZM810.165 215.42C810.151 214.7 809.891 214.127 809.385 213.7C808.878 213.26 808.258 213.04 807.525 213.04C806.831 213.04 806.245 213.253 805.765 213.68C805.298 214.093 805.011 214.673 804.905 215.42H810.165ZM814.389 216.42C814.389 215.3 814.609 214.307 815.049 213.44C815.502 212.573 816.109 211.907 816.869 211.44C817.642 210.973 818.502 210.74 819.449 210.74C820.275 210.74 820.995 210.907 821.609 211.24C822.235 211.573 822.735 211.993 823.109 212.5V210.92H825.929V222H823.109V220.38C822.749 220.9 822.249 221.333 821.609 221.68C820.982 222.013 820.255 222.18 819.429 222.18C818.495 222.18 817.642 221.94 816.869 221.46C816.109 220.98 815.502 220.307 815.049 219.44C814.609 218.56 814.389 217.553 814.389 216.42ZM823.109 216.46C823.109 215.78 822.975 215.2 822.709 214.72C822.442 214.227 822.082 213.853 821.629 213.6C821.175 213.333 820.689 213.2 820.169 213.2C819.649 213.2 819.169 213.327 818.729 213.58C818.289 213.833 817.929 214.207 817.649 214.7C817.382 215.18 817.249 215.753 817.249 216.42C817.249 217.087 817.382 217.673 817.649 218.18C817.929 218.673 818.289 219.053 818.729 219.32C819.182 219.587 819.662 219.72 820.169 219.72C820.689 219.72 821.175 219.593 821.629 219.34C822.082 219.073 822.442 218.7 822.709 218.22C822.975 217.727 823.109 217.14 823.109 216.46ZM827.943 216.46C827.943 215.313 828.177 214.313 828.643 213.46C829.11 212.593 829.757 211.927 830.583 211.46C831.41 210.98 832.357 210.74 833.423 210.74C834.797 210.74 835.93 211.087 836.823 211.78C837.73 212.46 838.337 213.42 838.643 214.66H835.623C835.463 214.18 835.19 213.807 834.803 213.54C834.43 213.26 833.963 213.12 833.403 213.12C832.603 213.12 831.97 213.413 831.503 214C831.037 214.573 830.803 215.393 830.803 216.46C830.803 217.513 831.037 218.333 831.503 218.92C831.97 219.493 832.603 219.78 833.403 219.78C834.537 219.78 835.277 219.273 835.623 218.26H838.643C838.337 219.46 837.73 220.413 836.823 221.12C835.917 221.827 834.783 222.18 833.423 222.18C832.357 222.18 831.41 221.947 830.583 221.48C829.757 221 829.11 220.333 828.643 219.48C828.177 218.613 827.943 217.607 827.943 216.46ZM843.954 213.22V218.58C843.954 218.953 844.041 219.227 844.214 219.4C844.401 219.56 844.708 219.64 845.134 219.64H846.434V222H844.674C842.314 222 841.134 220.853 841.134 218.56V213.22H839.814V210.92H841.134V208.18H843.954V210.92H846.434V213.22H843.954ZM861.354 208.04V217.84C861.354 219.2 860.961 220.26 860.174 221.02C859.387 221.767 858.334 222.14 857.014 222.14C855.681 222.14 854.601 221.753 853.774 220.98C852.961 220.207 852.554 219.127 852.554 217.74H855.354C855.367 218.34 855.507 218.807 855.774 219.14C856.054 219.473 856.454 219.64 856.974 219.64C857.481 219.64 857.867 219.48 858.134 219.16C858.401 218.84 858.534 218.4 858.534 217.84V208.04H861.354ZM869.44 222.14C868.467 222.14 867.587 221.973 866.8 221.64C866.027 221.307 865.414 220.827 864.96 220.2C864.507 219.573 864.274 218.833 864.26 217.98H867.26C867.3 218.553 867.5 219.007 867.86 219.34C868.234 219.673 868.74 219.84 869.38 219.84C870.034 219.84 870.547 219.687 870.92 219.38C871.294 219.06 871.48 218.647 871.48 218.14C871.48 217.727 871.354 217.387 871.1 217.12C870.847 216.853 870.527 216.647 870.14 216.5C869.767 216.34 869.247 216.167 868.58 215.98C867.674 215.713 866.934 215.453 866.36 215.2C865.8 214.933 865.314 214.54 864.9 214.02C864.5 213.487 864.3 212.78 864.3 211.9C864.3 211.073 864.507 210.353 864.92 209.74C865.334 209.127 865.914 208.66 866.66 208.34C867.407 208.007 868.26 207.84 869.22 207.84C870.66 207.84 871.827 208.193 872.72 208.9C873.627 209.593 874.127 210.567 874.22 211.82H871.14C871.114 211.34 870.907 210.947 870.52 210.64C870.147 210.32 869.647 210.16 869.02 210.16C868.474 210.16 868.034 210.3 867.7 210.58C867.38 210.86 867.22 211.267 867.22 211.8C867.22 212.173 867.34 212.487 867.58 212.74C867.834 212.98 868.14 213.18 868.5 213.34C868.874 213.487 869.394 213.66 870.06 213.86C870.967 214.127 871.707 214.393 872.28 214.66C872.854 214.927 873.347 215.327 873.76 215.86C874.174 216.393 874.38 217.093 874.38 217.96C874.38 218.707 874.187 219.4 873.8 220.04C873.414 220.68 872.847 221.193 872.1 221.58C871.354 221.953 870.467 222.14 869.44 222.14ZM808.123 252H805.323L798.983 242.42V252H796.183V238.02H798.983L805.323 247.62V238.02H808.123V252ZM821.19 246.22C821.19 246.62 821.163 246.98 821.11 247.3H813.01C813.076 248.1 813.356 248.727 813.85 249.18C814.343 249.633 814.95 249.86 815.67 249.86C816.71 249.86 817.45 249.413 817.89 248.52H820.91C820.59 249.587 819.976 250.467 819.07 251.16C818.163 251.84 817.05 252.18 815.73 252.18C814.663 252.18 813.703 251.947 812.85 251.48C812.01 251 811.35 250.327 810.87 249.46C810.403 248.593 810.17 247.593 810.17 246.46C810.17 245.313 810.403 244.307 810.87 243.44C811.336 242.573 811.99 241.907 812.83 241.44C813.67 240.973 814.636 240.74 815.73 240.74C816.783 240.74 817.723 240.967 818.55 241.42C819.39 241.873 820.036 242.52 820.49 243.36C820.956 244.187 821.19 245.14 821.19 246.22ZM818.29 245.42C818.276 244.7 818.016 244.127 817.51 243.7C817.003 243.26 816.383 243.04 815.65 243.04C814.956 243.04 814.37 243.253 813.89 243.68C813.423 244.093 813.136 244.673 813.03 245.42H818.29ZM829.354 252L827.074 248.56L825.054 252H822.054L825.674 246.44L822.014 240.92H825.174L827.434 244.34L829.474 240.92H832.474L828.834 246.44L832.514 252H829.354ZM837.294 243.22V248.58C837.294 248.953 837.381 249.227 837.554 249.4C837.741 249.56 838.048 249.64 838.474 249.64H839.774V252H838.014C835.654 252 834.474 250.853 834.474 248.56V243.22H833.154V240.92H834.474V238.18H837.294V240.92H839.774V243.22H837.294ZM843.028 252.14C842.522 252.14 842.102 251.987 841.768 251.68C841.448 251.36 841.288 250.967 841.288 250.5C841.288 250.033 841.448 249.647 841.768 249.34C842.102 249.02 842.522 248.86 843.028 248.86C843.522 248.86 843.928 249.02 844.248 249.34C844.568 249.647 844.728 250.033 844.728 250.5C844.728 250.967 844.568 251.36 844.248 251.68C843.928 251.987 843.522 252.14 843.028 252.14ZM855.124 238.04V247.84C855.124 249.2 854.73 250.26 853.944 251.02C853.157 251.767 852.104 252.14 850.784 252.14C849.45 252.14 848.37 251.753 847.544 250.98C846.73 250.207 846.324 249.127 846.324 247.74H849.124C849.137 248.34 849.277 248.807 849.544 249.14C849.824 249.473 850.224 249.64 850.744 249.64C851.25 249.64 851.637 249.48 851.904 249.16C852.17 248.84 852.304 248.4 852.304 247.84V238.04H855.124ZM863.21 252.14C862.236 252.14 861.356 251.973 860.57 251.64C859.796 251.307 859.183 250.827 858.73 250.2C858.276 249.573 858.043 248.833 858.03 247.98H861.03C861.07 248.553 861.27 249.007 861.63 249.34C862.003 249.673 862.51 249.84 863.15 249.84C863.803 249.84 864.316 249.687 864.69 249.38C865.063 249.06 865.25 248.647 865.25 248.14C865.25 247.727 865.123 247.387 864.87 247.12C864.616 246.853 864.296 246.647 863.91 246.5C863.536 246.34 863.016 246.167 862.35 245.98C861.443 245.713 860.703 245.453 860.13 245.2C859.57 244.933 859.083 244.54 858.67 244.02C858.27 243.487 858.07 242.78 858.07 241.9C858.07 241.073 858.276 240.353 858.69 239.74C859.103 239.127 859.683 238.66 860.43 238.34C861.176 238.007 862.03 237.84 862.99 237.84C864.43 237.84 865.596 238.193 866.49 238.9C867.396 239.593 867.896 240.567 867.99 241.82H864.91C864.883 241.34 864.676 240.947 864.29 240.64C863.916 240.32 863.416 240.16 862.79 240.16C862.243 240.16 861.803 240.3 861.47 240.58C861.15 240.86 860.99 241.267 860.99 241.8C860.99 242.173 861.11 242.487 861.35 242.74C861.603 242.98 861.91 243.18 862.27 243.34C862.643 243.487 863.163 243.66 863.83 243.86C864.736 244.127 865.476 244.393 866.05 244.66C866.623 244.927 867.116 245.327 867.53 245.86C867.943 246.393 868.15 247.093 868.15 247.96C868.15 248.707 867.956 249.4 867.57 250.04C867.183 250.68 866.616 251.193 865.87 251.58C865.123 251.953 864.236 252.14 863.21 252.14Z" fill="white"/>
<rect x="400" y="288" width="206" height="72" rx="36" fill="#404040"/>
<path d="M458.978 317.04L455.078 331H451.778L449.158 321.06L446.418 331L443.138 331.02L439.378 317.04H442.378L444.838 327.88L447.678 317.04H450.798L453.478 327.82L455.958 317.04H458.978ZM471.106 325.22C471.106 325.62 471.079 325.98 471.026 326.3H462.926C462.992 327.1 463.272 327.727 463.766 328.18C464.259 328.633 464.866 328.86 465.586 328.86C466.626 328.86 467.366 328.413 467.806 327.52H470.826C470.506 328.587 469.892 329.467 468.986 330.16C468.079 330.84 466.966 331.18 465.646 331.18C464.579 331.18 463.619 330.947 462.766 330.48C461.926 330 461.266 329.327 460.786 328.46C460.319 327.593 460.086 326.593 460.086 325.46C460.086 324.313 460.319 323.307 460.786 322.44C461.252 321.573 461.906 320.907 462.746 320.44C463.586 319.973 464.552 319.74 465.646 319.74C466.699 319.74 467.639 319.967 468.466 320.42C469.306 320.873 469.952 321.52 470.406 322.36C470.872 323.187 471.106 324.14 471.106 325.22ZM468.206 324.42C468.192 323.7 467.932 323.127 467.426 322.7C466.919 322.26 466.299 322.04 465.566 322.04C464.872 322.04 464.286 322.253 463.806 322.68C463.339 323.093 463.052 323.673 462.946 324.42H468.206ZM475.95 321.54C476.31 321.007 476.803 320.573 477.43 320.24C478.07 319.907 478.796 319.74 479.61 319.74C480.556 319.74 481.41 319.973 482.17 320.44C482.943 320.907 483.55 321.573 483.99 322.44C484.443 323.293 484.67 324.287 484.67 325.42C484.67 326.553 484.443 327.56 483.99 328.44C483.55 329.307 482.943 329.98 482.17 330.46C481.41 330.94 480.556 331.18 479.61 331.18C478.783 331.18 478.056 331.02 477.43 330.7C476.816 330.367 476.323 329.94 475.95 329.42V331H473.15V316.2H475.95V321.54ZM481.81 325.42C481.81 324.753 481.67 324.18 481.39 323.7C481.123 323.207 480.763 322.833 480.31 322.58C479.87 322.327 479.39 322.2 478.87 322.2C478.363 322.2 477.883 322.333 477.43 322.6C476.99 322.853 476.63 323.227 476.35 323.72C476.083 324.213 475.95 324.793 475.95 325.46C475.95 326.127 476.083 326.707 476.35 327.2C476.63 327.693 476.99 328.073 477.43 328.34C477.883 328.593 478.363 328.72 478.87 328.72C479.39 328.72 479.87 328.587 480.31 328.32C480.763 328.053 481.123 327.673 481.39 327.18C481.67 326.687 481.81 326.1 481.81 325.42ZM497.71 319.76C498.55 319.76 499.297 319.947 499.95 320.32C500.603 320.68 501.11 321.22 501.47 321.94C501.843 322.647 502.03 323.5 502.03 324.5V331H499.23V324.88C499.23 324 499.01 323.327 498.57 322.86C498.13 322.38 497.53 322.14 496.77 322.14C495.997 322.14 495.383 322.38 494.93 322.86C494.49 323.327 494.27 324 494.27 324.88V331H491.47V316.2H494.27V321.3C494.63 320.82 495.11 320.447 495.71 320.18C496.31 319.9 496.977 319.76 497.71 319.76ZM509.613 331.18C508.546 331.18 507.586 330.947 506.733 330.48C505.879 330 505.206 329.327 504.713 328.46C504.233 327.593 503.993 326.593 503.993 325.46C503.993 324.327 504.239 323.327 504.733 322.46C505.239 321.593 505.926 320.927 506.793 320.46C507.659 319.98 508.626 319.74 509.693 319.74C510.759 319.74 511.726 319.98 512.593 320.46C513.459 320.927 514.139 321.593 514.633 322.46C515.139 323.327 515.393 324.327 515.393 325.46C515.393 326.593 515.133 327.593 514.612 328.46C514.106 329.327 513.413 330 512.533 330.48C511.666 330.947 510.693 331.18 509.613 331.18ZM509.613 328.74C510.119 328.74 510.593 328.62 511.033 328.38C511.486 328.127 511.846 327.753 512.113 327.26C512.379 326.767 512.513 326.167 512.513 325.46C512.513 324.407 512.233 323.6 511.673 323.04C511.126 322.467 510.453 322.18 509.653 322.18C508.853 322.18 508.179 322.467 507.633 323.04C507.099 323.6 506.833 324.407 506.833 325.46C506.833 326.513 507.093 327.327 507.613 327.9C508.146 328.46 508.813 328.74 509.613 328.74ZM521.686 331.18C520.78 331.18 519.966 331.02 519.246 330.7C518.526 330.367 517.953 329.92 517.526 329.36C517.113 328.8 516.886 328.18 516.846 327.5H519.666C519.72 327.927 519.926 328.28 520.286 328.56C520.66 328.84 521.12 328.98 521.666 328.98C522.2 328.98 522.613 328.873 522.906 328.66C523.213 328.447 523.366 328.173 523.366 327.84C523.366 327.48 523.18 327.213 522.806 327.04C522.446 326.853 521.866 326.653 521.066 326.44C520.24 326.24 519.56 326.033 519.026 325.82C518.506 325.607 518.053 325.28 517.666 324.84C517.293 324.4 517.106 323.807 517.106 323.06C517.106 322.447 517.28 321.887 517.626 321.38C517.986 320.873 518.493 320.473 519.146 320.18C519.813 319.887 520.593 319.74 521.486 319.74C522.806 319.74 523.86 320.073 524.646 320.74C525.433 321.393 525.866 322.28 525.946 323.4H523.266C523.226 322.96 523.04 322.613 522.706 322.36C522.386 322.093 521.953 321.96 521.406 321.96C520.9 321.96 520.506 322.053 520.226 322.24C519.96 322.427 519.826 322.687 519.826 323.02C519.826 323.393 520.013 323.68 520.386 323.88C520.76 324.067 521.34 324.26 522.126 324.46C522.926 324.66 523.586 324.867 524.106 325.08C524.626 325.293 525.073 325.627 525.446 326.08C525.833 326.52 526.033 327.107 526.046 327.84C526.046 328.48 525.866 329.053 525.506 329.56C525.16 330.067 524.653 330.467 523.986 330.76C523.333 331.04 522.566 331.18 521.686 331.18ZM531.605 322.22V327.58C531.605 327.953 531.692 328.227 531.865 328.4C532.052 328.56 532.358 328.64 532.785 328.64H534.085V331H532.325C529.965 331 528.785 329.853 528.785 327.56V322.22H527.465V319.92H528.785V317.18H531.605V319.92H534.085V322.22H531.605ZM537.519 318.6C537.025 318.6 536.612 318.447 536.279 318.14C535.959 317.82 535.799 317.427 535.799 316.96C535.799 316.493 535.959 316.107 536.279 315.8C536.612 315.48 537.025 315.32 537.519 315.32C538.012 315.32 538.419 315.48 538.739 315.8C539.072 316.107 539.239 316.493 539.239 316.96C539.239 317.427 539.072 317.82 538.739 318.14C538.419 318.447 538.012 318.6 537.519 318.6ZM538.899 319.92V331H536.099V319.92H538.899ZM547.805 319.76C549.125 319.76 550.192 320.18 551.005 321.02C551.818 321.847 552.225 323.007 552.225 324.5V331H549.425V324.88C549.425 324 549.205 323.327 548.765 322.86C548.325 322.38 547.725 322.14 546.965 322.14C546.192 322.14 545.578 322.38 545.125 322.86C544.685 323.327 544.465 324 544.465 324.88V331H541.665V319.92H544.465V321.3C544.838 320.82 545.312 320.447 545.885 320.18C546.472 319.9 547.112 319.76 547.805 319.76ZM559.228 319.74C560.054 319.74 560.781 319.907 561.408 320.24C562.034 320.56 562.528 320.98 562.888 321.5V319.92H565.708V331.08C565.708 332.107 565.501 333.02 565.088 333.82C564.674 334.633 564.054 335.273 563.228 335.74C562.401 336.22 561.401 336.46 560.228 336.46C558.654 336.46 557.361 336.093 556.348 335.36C555.348 334.627 554.781 333.627 554.648 332.36H557.428C557.574 332.867 557.888 333.267 558.368 333.56C558.861 333.867 559.454 334.02 560.148 334.02C560.961 334.02 561.621 333.773 562.128 333.28C562.634 332.8 562.888 332.067 562.888 331.08V329.36C562.528 329.88 562.028 330.313 561.388 330.66C560.761 331.007 560.041 331.18 559.228 331.18C558.294 331.18 557.441 330.94 556.668 330.46C555.894 329.98 555.281 329.307 554.828 328.44C554.388 327.56 554.168 326.553 554.168 325.42C554.168 324.3 554.388 323.307 554.828 322.44C555.281 321.573 555.888 320.907 556.648 320.44C557.421 319.973 558.281 319.74 559.228 319.74ZM562.888 325.46C562.888 324.78 562.754 324.2 562.488 323.72C562.221 323.227 561.861 322.853 561.408 322.6C560.954 322.333 560.468 322.2 559.948 322.2C559.428 322.2 558.948 322.327 558.508 322.58C558.068 322.833 557.708 323.207 557.428 323.7C557.161 324.18 557.028 324.753 557.028 325.42C557.028 326.087 557.161 326.673 557.428 327.18C557.708 327.673 558.068 328.053 558.508 328.32C558.961 328.587 559.441 328.72 559.948 328.72C560.468 328.72 560.954 328.593 561.408 328.34C561.861 328.073 562.221 327.7 562.488 327.22C562.754 326.727 562.888 326.14 562.888 325.46Z" fill="white"/>
<line x1="537.432" y1="158.442" x2="568.432" y2="139.442" stroke="#404040" stroke-width="6"/>
<path d="M891.432 33.4422L953.205 33.4422" stroke="#404040" stroke-width="6"/>
<path d="M950.202 36.0002L950.202 234" stroke="#404040" stroke-width="6"/>
<path d="M530.432 206.442L569 227" stroke="#404040" stroke-width="6"/>
<line x1="932" y1="131" x2="949" y2="131" stroke="#404040" stroke-width="6"/>
<line x1="933" y1="231" x2="950" y2="231" stroke="#404040" stroke-width="6"/>
</svg>
